<svg width="26" height="26" viewBox="0 0 26 26" fill="none"
    xmlns="http://www.w3.org/2000/svg">
    <path fill-rule="evenodd" clip-rule="evenodd" d="M13 23.5C18.799 23.5 23.5 18.799 23.5 13C23.5 7.20101 18.799 2.5 13 2.5C7.20101 2.5 2.5 7.20101 2.5 13C2.5 18.799 7.20101 23.5 13 23.5ZM13 26C20.1797 26 26 20.1797 26 13C26 5.8203 20.1797 0 13 0C5.8203 0 0 5.8203 0 13C0 20.1797 5.8203 26 13 26Z" fill="#5CFC4E"/>
    <path fill-rule="evenodd" clip-rule="evenodd" d="M13 14C9.0044 14 6 16.8075 6 20C6 20.5523 5.55228 21 5 21C4.44772 21 4 20.5523 4 20C4 15.4605 8.15904 12 13 12C17.841 12 22 15.4605 22 20C22 20.5523 21.5523 21 21 21C20.4477 21 20 20.5523 20 20C20 16.8075 16.9956 14 13 14Z" fill="#5CFC4E"/>
    <path fill-rule="evenodd" clip-rule="evenodd" d="M13 10C14.1046 10 15 9.10457 15 8C15 6.89543 14.1046 6 13 6C11.8954 6 11 6.89543 11 8C11 9.10457 11.8954 10 13 10ZM13 12C15.2091 12 17 10.2091 17 8C17 5.79086 15.2091 4 13 4C10.7909 4 9 5.79086 9 8C9 10.2091 10.7909 12 13 12Z" fill="white"/>
</svg>
