<svg width="85" height="84" viewBox="0 0 85 84" fill="none" xmlns="http://www.w3.org/2000/svg">
<path d="M65.4084 83.9978C64.3933 84.0036 63.4179 83.6054 62.6976 82.8902L48.5707 68.7254H27.2278C24.1897 68.7254 21.2762 67.5186 19.1279 65.371C16.9802 63.2227 15.7734 60.3093 15.7734 57.2714V26.7283C15.7734 23.6903 16.9802 20.7769 19.1279 18.6286C21.2762 16.481 24.1897 15.2742 27.2278 15.2742H73.0456C76.0829 15.2742 78.9965 16.481 81.1448 18.6286C83.2932 20.7769 84.5 23.6903 84.5 26.7283V57.273V57.2724C84.5 60.3103 83.2932 63.2237 81.1448 65.372C78.9965 67.5196 76.0829 68.7264 73.0456 68.7264H69.227V80.1805C69.2231 80.9347 68.9969 81.6704 68.5756 82.2955C68.1544 82.9207 67.5574 83.4071 66.8601 83.6934C66.4069 83.9069 65.9102 84.0117 65.4091 83.999L65.4084 83.9978ZM27.2275 22.9084C26.2143 22.9084 25.2434 23.3111 24.5275 24.027C23.8116 24.7429 23.4089 25.7139 23.4089 26.7269V57.2716V57.2709C23.4089 58.284 23.8116 59.255 24.5275 59.9708C25.2434 60.6867 26.2144 61.0894 27.2275 61.0894H50.1363C51.1508 61.083 52.1261 61.4818 52.8471 62.1964L61.5908 70.9781V64.9071C61.5908 63.8947 61.9928 62.9231 62.7087 62.2072C63.4246 61.4914 64.3961 61.0893 65.4087 61.0893H73.0452C74.0577 61.0893 75.0286 60.6866 75.7446 59.9708C76.4611 59.2549 76.8631 58.2839 76.8631 57.2709V26.7278C76.8631 25.7147 76.4611 24.7438 75.7446 24.0279C75.0286 23.312 74.0576 22.9094 73.0452 22.9094L27.2275 22.9084ZM11.9544 45.8166C10.942 45.8166 9.97102 45.4145 9.25512 44.6986C8.53858 43.9828 8.13653 43.0113 8.13653 41.9988V11.4541C8.13653 10.4416 8.53858 9.47071 9.25512 8.75483C9.97102 8.03831 10.942 7.63627 11.9544 7.63627H57.7722C58.7853 7.63627 59.7563 8.03831 60.4722 8.75483C61.1881 9.47071 61.5908 10.4417 61.5908 11.4541H69.2273H69.2266C69.2266 8.41677 68.0198 5.50335 65.8721 3.35506C63.7238 1.20677 60.8102 0 57.7722 0H11.9544C8.91705 0 6.00353 1.20677 3.85517 3.35506C1.70681 5.50335 0.5 8.41677 0.5 11.4541V41.9988C0.5 45.0367 1.70681 47.9501 3.85517 50.0978C6.00353 52.246 8.91705 53.4528 11.9544 53.4528V45.8166ZM46.3178 38.1803L31.0454 38.1809V45.8172H46.3178V38.1803ZM69.2266 38.1803L53.9543 38.1809V45.8172H69.2266V38.1803Z" fill="#5CFC4E"/>
</svg>
