<svg width="129" height="61" viewBox="0 0 129 61" fill="none" xmlns="http://www.w3.org/2000/svg">
<path fill-rule="evenodd" clip-rule="evenodd" d="M118.891 1.37608C120.282 2.12863 120.884 3.7095 120.236 4.90706L99.4694 43.2632C98.821 44.4608 97.1676 44.8216 95.7763 44.069C94.3851 43.3165 93.7829 41.7356 94.4312 40.538L115.198 2.18185C115.846 0.984289 117.5 0.623536 118.891 1.37608Z" fill="#5CFC4E"/>
<path fill-rule="evenodd" clip-rule="evenodd" d="M96.3802 16.1821C98.9273 16.1821 100.992 14.1105 100.992 11.555C100.992 8.99948 98.9273 6.92783 96.3802 6.92783C93.8331 6.92783 91.7683 8.99948 91.7683 11.555C91.7683 14.1105 93.8331 16.1821 96.3802 16.1821ZM96.3802 21.9661C102.111 21.9661 106.757 17.3049 106.757 11.555C106.757 5.8051 102.111 1.1439 96.3802 1.1439C90.6493 1.1439 86.0034 5.8051 86.0034 11.555C86.0034 17.3049 90.6493 21.9661 96.3802 21.9661Z" fill="#5CFC4E"/>
<path fill-rule="evenodd" clip-rule="evenodd" d="M118.287 38.1611C120.834 38.1611 122.899 36.0894 122.899 33.5339C122.899 30.9784 120.834 28.9068 118.287 28.9068C115.74 28.9068 113.675 30.9784 113.675 33.5339C113.675 36.0894 115.74 38.1611 118.287 38.1611ZM118.287 43.945C124.018 43.945 128.663 39.2838 128.663 33.5339C128.663 27.784 124.018 23.1228 118.287 23.1228C112.556 23.1228 107.91 27.784 107.91 33.5339C107.91 39.2838 112.556 43.945 118.287 43.945Z" fill="#5CFC4E"/>
<path d="M7.19135 14.807L0.336914 19.787V12.8625L8.37314 6.93395H14.3767V40.0863H7.19135V14.807Z" fill="#5CFC4E"/>
<path d="M33.0897 40.7977C30.0958 40.7977 27.4801 40.1179 25.2426 38.7583C23.0366 37.3671 21.3348 35.3751 20.1372 32.7823C18.9397 30.158 18.3409 27.0752 18.3409 23.5338C18.3409 19.9609 18.9239 16.8781 20.0899 14.2853C21.2875 11.6926 22.9893 9.7006 25.1953 8.30938C27.4328 6.91815 30.0643 6.22253 33.0897 6.22253C36.1151 6.22253 38.7308 6.91815 40.9369 8.30938C43.1429 9.7006 44.8289 11.6926 45.995 14.2853C47.1925 16.8781 47.7913 19.9609 47.7913 23.5338C47.7913 27.0752 47.1925 30.158 45.995 32.7823C44.7974 35.3751 43.0956 37.3671 40.8896 38.7583C38.6836 40.1179 36.0836 40.7977 33.0897 40.7977ZM33.0897 34.1578C35.4533 34.1578 37.2812 33.225 38.5733 31.3595C39.8654 29.494 40.5114 26.9171 40.5114 23.6287C40.5114 20.3087 39.8654 17.7002 38.5733 15.803C37.3127 13.9059 35.4848 12.9573 33.0897 12.9573C30.6946 12.9573 28.851 13.9059 27.5589 15.803C26.2983 17.7002 25.668 20.3087 25.668 23.6287C25.668 26.9171 26.3141 29.494 27.6062 31.3595C28.8983 33.225 30.7261 34.1578 33.0897 34.1578Z" fill="#5CFC4E"/>
<path d="M65.6353 40.7977C62.6414 40.7977 60.0257 40.1179 57.7882 38.7583C55.5822 37.3671 53.8804 35.3751 52.6828 32.7823C51.4853 30.158 50.8865 27.0752 50.8865 23.5338C50.8865 19.9609 51.4695 16.8781 52.6356 14.2853C53.8331 11.6926 55.5349 9.7006 57.7409 8.30938C59.9785 6.91815 62.6099 6.22253 65.6353 6.22253C68.6607 6.22253 71.2765 6.91815 73.4825 8.30938C75.6885 9.7006 77.3745 11.6926 78.5406 14.2853C79.7381 16.8781 80.3369 19.9609 80.3369 23.5338C80.3369 27.0752 79.7381 30.158 78.5406 32.7823C77.343 35.3751 75.6412 37.3671 73.4352 38.7583C71.2292 40.1179 68.6292 40.7977 65.6353 40.7977ZM65.6353 34.1578C67.9989 34.1578 69.8268 33.225 71.1189 31.3595C72.411 29.494 73.057 26.9171 73.057 23.6287C73.057 20.3087 72.411 17.7002 71.1189 15.803C69.8583 13.9059 68.0304 12.9573 65.6353 12.9573C63.2402 12.9573 61.3966 13.9059 60.1045 15.803C58.8439 17.7002 58.2136 20.3087 58.2136 23.6287C58.2136 26.9171 58.8597 29.494 60.1518 31.3595C61.4439 33.225 63.2717 34.1578 65.6353 34.1578Z" fill="#5CFC4E"/>
<path fill-rule="evenodd" clip-rule="evenodd" d="M1.5 48.0412C1.5 46.1082 3.067 44.5412 5 44.5412H87C88.933 44.5412 90.5 46.1082 90.5 48.0412C90.5 49.9742 88.933 51.5412 87 51.5412H5C3.067 51.5412 1.5 49.9742 1.5 48.0412Z" fill="#5CFC4E"/>
<path fill-rule="evenodd" clip-rule="evenodd" d="M31.7242 57.5C31.7242 55.567 33.2912 54 35.2242 54H117.224C119.157 54 120.724 55.567 120.724 57.5C120.724 59.433 119.157 61 117.224 61H35.2242C33.2912 61 31.7242 59.433 31.7242 57.5Z" fill="#5CFC4E"/>
</svg>
