<svg width="101" height="84" viewBox="0 0 101 84" fill="none" xmlns="http://www.w3.org/2000/svg">
<path d="M40.3175 61.0733L43.3141 58.4274L44.61 57.3009C45.6718 56.3927 46.4817 55.6679 47.0397 55.1265C47.6156 54.5851 48.0835 54.035 48.4435 53.4761C48.8214 52.9172 49.0104 52.3671 49.0104 51.8257C49.0104 50.2015 48.0655 49.3893 46.1758 49.3893C45.2579 49.3893 44.349 49.5465 43.4491 49.8609C42.5672 50.1753 41.7483 50.6119 40.9924 51.1708V46.7434C41.8023 46.202 42.7472 45.7829 43.827 45.486C44.9069 45.1716 46.0588 45.0144 47.2826 45.0144C48.6865 45.0144 49.9013 45.2677 50.9272 45.7741C51.9531 46.2806 52.736 46.9792 53.2759 47.8699C53.8158 48.7606 54.0858 49.7648 54.0858 50.8826C54.0858 52.2274 53.7618 53.4063 53.1139 54.4192C52.484 55.4147 51.4581 56.5412 50.0363 57.7987L47.6336 59.9206H54.6797V63.7192H40.3175V61.0733Z" fill="#5CFC4E"/>
<path d="M64.1564 59.9468H55.4905V57.0651L64.4264 45.4074H69.1508V56.2792H71.8235V59.9468H69.1508V63.7192H64.1564V59.9468ZM64.8853 56.2792V51.0398L60.9168 56.2792H64.8853Z" fill="#5CFC4E"/>
<path d="M94.5372 65.3496H84.0352V60.4681H101V64.4406L92.08 84H86.0212L94.5372 65.3496Z" fill="#5CFC4E"/>
<path fill-rule="evenodd" clip-rule="evenodd" d="M92.4638 33.0933C93.7912 33.8014 94.2663 35.4925 93.525 36.8706L69.7827 81.0075C69.0415 82.3856 67.3645 82.9287 66.0372 82.2206C64.7098 81.5124 64.2347 79.8213 64.976 78.4432L88.7183 34.3063C89.4596 32.9282 91.1365 32.3851 92.4638 33.0933Z" fill="#5CFC4E"/>
<path fill-rule="evenodd" clip-rule="evenodd" d="M7.28629 0C3.26218 0 0 3.2487 0 7.25618V69.1756C0 73.7174 3.69714 77.3992 8.2578 77.3992H60.7191V70.6268H8.2578C7.45297 70.6268 6.80054 69.9771 6.80054 69.1756V20.3173H76.7489V34.3459H83.5495V7.25618C83.5495 3.2487 80.2873 0 76.2632 0H7.28629ZM76.7489 11.7375V7.25618C76.7489 6.98901 76.5314 6.77243 76.2632 6.77243H7.28629C7.01802 6.77243 6.80054 6.98902 6.80054 7.25618V11.7375C7.27358 11.6537 7.76055 11.6099 8.2578 11.6099H75.2917C75.7889 11.6099 76.2759 11.6537 76.7489 11.7375Z" fill="#5CFC4E"/>
<path d="M24.7734 30.476C24.7734 33.1476 22.5986 35.3134 19.9159 35.3134C17.2331 35.3134 15.0583 33.1476 15.0583 30.476C15.0583 27.8043 17.2331 25.6385 19.9159 25.6385C22.5986 25.6385 24.7734 27.8043 24.7734 30.476Z" fill="#5CFC4E"/>
<path d="M47.118 30.476C47.118 33.1476 44.9432 35.3134 42.2605 35.3134C39.5777 35.3134 37.403 33.1476 37.403 30.476C37.403 27.8043 39.5777 25.6385 42.2605 25.6385C44.9432 25.6385 47.118 27.8043 47.118 30.476Z" fill="#5CFC4E"/>
<path d="M69.4626 30.476C69.4626 33.1476 67.2878 35.3134 64.6051 35.3134C61.9224 35.3134 59.7476 33.1476 59.7476 30.476C59.7476 27.8043 61.9224 25.6385 64.6051 25.6385C67.2878 25.6385 69.4626 27.8043 69.4626 30.476Z" fill="#5CFC4E"/>
</svg>
