<svg width="22" height="22" viewBox="0 0 22 22" fill="none" xmlns="http://www.w3.org/2000/svg">
<path d="M9.60975 14.4139C9.94048 14.4953 10.2923 14.5544 10.6653 14.5914V15.6013H12.3647V14.5248C13.0051 14.3917 13.4836 14.1401 13.8002 13.7702C14.1169 13.3929 14.2752 12.9157 14.2752 12.3386C14.2752 11.9169 14.2119 11.5654 14.0852 11.2843C13.9586 11.0032 13.7545 10.759 13.473 10.5518C13.1986 10.3373 12.8116 10.1227 12.3119 9.90818C11.9319 9.75281 11.654 9.63073 11.4781 9.54195C11.3092 9.45317 11.1755 9.35699 11.077 9.25341C10.9855 9.14983 10.9397 9.02405 10.9397 8.87608C10.9397 8.66153 11.0347 8.49876 11.2247 8.38778C11.4147 8.2768 11.6681 8.22132 11.9847 8.22132C12.611 8.22132 13.2338 8.39148 13.853 8.73181V7.00056C13.3815 6.77121 12.8854 6.62694 12.3647 6.56775V5.55785H10.6653V6.65653C10.1023 6.8045 9.65549 7.07085 9.32475 7.45557C9.00105 7.83289 8.8392 8.2879 8.8392 8.82059C8.8392 9.36808 8.99402 9.83049 9.30364 10.2078C9.61327 10.5851 10.1094 10.9255 10.792 11.2288C11.179 11.399 11.4569 11.5321 11.6258 11.6283C11.8018 11.7171 11.9319 11.8133 12.0164 11.9169C12.1008 12.0205 12.143 12.1536 12.143 12.3164C12.143 12.5235 12.0621 12.6826 11.9003 12.7936C11.7455 12.8972 11.4992 12.949 11.1614 12.949C10.7884 12.949 10.3944 12.8972 9.97919 12.7936C9.57104 12.69 9.17698 12.5346 8.79698 12.3275V14.1031C9.01513 14.2289 9.28605 14.3325 9.60975 14.4139Z" fill="#42E433"/>
<path fill-rule="evenodd" clip-rule="evenodd" d="M21.5796 10.5796C21.5796 16.3786 16.8786 21.0796 11.0796 21.0796C5.2806 21.0796 0.57959 16.3786 0.57959 10.5796C0.57959 4.7806 5.2806 0.0795898 11.0796 0.0795898C16.8786 0.0795898 21.5796 4.7806 21.5796 10.5796ZM18.8405 10.5796C18.8405 14.8658 15.3658 18.3405 11.0796 18.3405C9.45961 18.3405 7.95555 17.8441 6.7112 16.9952L7.93912 15.7673C8.47397 15.2324 8.47397 14.3653 7.93912 13.8304C7.40427 13.2956 6.53711 13.2956 6.00226 13.8304L4.75466 15.078C3.85052 13.8091 3.31872 12.2564 3.31872 10.5796C3.31872 6.29338 6.79338 2.81872 11.0796 2.81872C12.7565 2.81872 14.3092 3.35057 15.5782 4.25479L14.6762 5.15665C14.1414 5.69147 14.1413 6.55863 14.6761 7.09351C15.2109 7.62839 16.0781 7.62845 16.613 7.09363L17.4953 6.21139C18.3442 7.4557 18.8405 8.95969 18.8405 10.5796Z" fill="#42E433"/>
</svg>
