<svg width="26" height="23" viewBox="0 0 26 23" fill="none"
    xmlns="http://www.w3.org/2000/svg">
    <path fill-rule="evenodd" clip-rule="evenodd" d="M15.6423 22.7388V22.7907H3.13662C1.40367 22.7907 0.000290081 21.3835 0.000290081 19.6466L0 3.35305C0 1.61583 1.40367 0.208984 3.13633 0.208984H22.8637C24.5966 0.208984 26 1.61612 26 3.35305V11.5084C26 11.6118 25.9817 11.7111 25.9483 11.8033V19.0615C25.9483 21.0924 24.3019 22.7388 22.271 22.7388H15.6423ZM13.2117 21.0537L3.13603 21.0534C2.36498 21.0534 1.73265 20.4195 1.73265 19.6466V19.5771L7.32946 14.0272C8.17855 13.1935 9.52133 13.1415 10.4397 13.8536L11.826 15.2259L11.9299 15.3129C12.5103 15.7299 13.342 15.7037 13.8705 15.2867L18.3671 10.8573C19.4761 9.76303 21.1048 9.3722 22.6124 9.84968C23.089 10.0061 23.5395 10.258 23.8946 10.5444L24.1873 10.8378V19.0615C24.1873 20.1198 23.3293 20.9778 22.271 20.9778H13.5698C13.4423 20.9778 13.3211 21.0049 13.2117 21.0537ZM3.13647 1.94635H22.8557C23.6267 1.94635 24.259 2.58028 24.259 3.35319V8.70325C23.9037 8.49475 23.5225 8.31242 23.1326 8.19087C21.0101 7.51331 18.7228 8.06059 17.146 9.6152L12.8748 13.8274L12.4417 13.402L12.4591 13.3845L11.8438 12.7852C10.267 11.2393 7.69394 11.2393 6.1084 12.7852L1.73311 17.1276L1.7334 3.35328C1.7334 2.58033 2.36547 1.94635 3.13647 1.94635Z" fill="#5CFC4E"/>
    <path fill-rule="evenodd" clip-rule="evenodd" d="M8.39056 8.18493C9.13428 8.18493 9.73718 7.58203 9.73718 6.83832C9.73718 6.0946 9.13428 5.4917 8.39056 5.4917C7.64685 5.4917 7.04395 6.0946 7.04395 6.83832C7.04395 7.58203 7.64685 8.18493 8.39056 8.18493ZM8.39056 9.63513C9.9352 9.63513 11.1874 8.38295 11.1874 6.83832C11.1874 5.29368 9.9352 4.0415 8.39056 4.0415C6.84593 4.0415 5.59375 5.29368 5.59375 6.83832C5.59375 8.38295 6.84593 9.63513 8.39056 9.63513Z" fill="white"/>
</svg>
