<svg width="26" height="26" viewBox="0 0 26 26" fill="none"
    xmlns="http://www.w3.org/2000/svg">
    <path fill-rule="evenodd" clip-rule="evenodd" d="M18.8768 25.999H2.42814C1.80374 26.0167 1.19768 25.79 0.742608 25.3687C0.287539 24.9474 0.0205222 24.3658 0 23.7512V2.24851C0.0206076 1.63391 0.287661 1.05238 0.742722 0.631172C1.19778 0.209959 1.80379 -0.016636 2.42814 0.000973406H18.8768C19.5013 -0.0168111 20.1075 0.209705 20.5627 0.630937C21.0179 1.05217 21.285 1.6338 21.3056 2.24851V5.89929C21.3056 6.07089 21.2364 6.23546 21.1131 6.3568C20.9899 6.47814 20.8227 6.54631 20.6484 6.54631C20.4741 6.54631 20.307 6.47814 20.1837 6.3568C20.0604 6.23546 19.9912 6.07089 19.9912 5.89929V2.24851C19.9693 1.97806 19.84 1.72699 19.6315 1.54965C19.4229 1.3723 19.1518 1.28293 18.8768 1.30088H2.42814C2.15323 1.28294 1.88221 1.37232 1.67376 1.54969C1.46531 1.72705 1.33621 1.97811 1.31442 2.24851V23.7512C1.33613 24.0216 1.46519 24.2728 1.67365 24.4502C1.88211 24.6276 2.15318 24.7171 2.42814 24.6991H18.8768C19.0519 24.6991 19.2198 24.7676 19.3436 24.8895C19.4675 25.0114 19.537 25.1767 19.537 25.3491C19.537 25.5215 19.4675 25.6868 19.3436 25.8087C19.2198 25.9306 19.0519 25.999 18.8768 25.999ZM12.0846 14.3483H9.45541C9.28032 14.3483 9.1124 14.2799 8.9886 14.158C8.86479 14.0361 8.79523 13.8708 8.79523 13.6984C8.79523 13.526 8.86479 13.3607 8.9886 13.2388C9.1124 13.1169 9.28032 13.0484 9.45541 13.0484H12.0846C12.2597 13.0484 12.4276 13.1169 12.5514 13.2388C12.6752 13.3607 12.7448 13.526 12.7448 13.6984C12.7448 13.8708 12.6752 14.0361 12.5514 14.158C12.4276 14.2799 12.2597 14.3483 12.0846 14.3483ZM6.16937 14.3483H3.54054C3.36545 14.3483 3.19753 14.2799 3.07372 14.158C2.94992 14.0361 2.88036 13.8708 2.88036 13.6984C2.88036 13.526 2.94992 13.3607 3.07372 13.2388C3.19753 13.1169 3.36545 13.0484 3.54054 13.0484H6.16937C6.25607 13.0485 6.3419 13.0654 6.42196 13.0982C6.50203 13.1309 6.57475 13.1788 6.636 13.2393C6.69724 13.2997 6.74579 13.3714 6.77889 13.4503C6.81199 13.5291 6.82898 13.6137 6.82889 13.699C6.8288 13.7844 6.81164 13.8689 6.77839 13.9477C6.74513 14.0265 6.69643 14.0981 6.63506 14.1584C6.5737 14.2187 6.50087 14.2665 6.42074 14.2991C6.34061 14.3317 6.25475 14.3484 6.16805 14.3483H6.16937ZM12.0846 16.9481H9.45541C9.28032 16.9481 9.1124 16.8797 8.9886 16.7578C8.86479 16.6359 8.79523 16.4706 8.79523 16.2982C8.79523 16.1258 8.86479 15.9605 8.9886 15.8386C9.1124 15.7167 9.28032 15.6482 9.45541 15.6482H12.0846C12.2597 15.6482 12.4276 15.7167 12.5514 15.8386C12.6752 15.9605 12.7448 16.1258 12.7448 16.2982C12.7448 16.4706 12.6752 16.6359 12.5514 16.7578C12.4276 16.8797 12.2597 16.9481 12.0846 16.9481ZM6.16937 16.9481H3.54054C3.36545 16.9481 3.19753 16.8797 3.07372 16.7578C2.94992 16.6359 2.88036 16.4706 2.88036 16.2982C2.88036 16.1258 2.94992 15.9605 3.07372 15.8386C3.19753 15.7167 3.36545 15.6482 3.54054 15.6482H6.16937C6.25607 15.6483 6.3419 15.6652 6.42196 15.698C6.50203 15.7307 6.57475 15.7786 6.636 15.8391C6.69724 15.8995 6.74579 15.9712 6.77889 16.0501C6.81199 16.129 6.82898 16.2135 6.82889 16.2988C6.8288 16.3842 6.81164 16.4687 6.77839 16.5475C6.74513 16.6263 6.69643 16.6979 6.63506 16.7582C6.5737 16.8185 6.50087 16.8663 6.42074 16.8989C6.34061 16.9315 6.25475 16.9482 6.16805 16.9481H6.16937ZM12.0846 19.5479H9.45541C9.28032 19.5479 9.1124 19.4795 8.9886 19.3576C8.86479 19.2357 8.79523 19.0704 8.79523 18.898C8.79523 18.7256 8.86479 18.5603 8.9886 18.4384C9.1124 18.3165 9.28032 18.248 9.45541 18.248H12.0846C12.2597 18.248 12.4276 18.3165 12.5514 18.4384C12.6752 18.5603 12.7448 18.7256 12.7448 18.898C12.7448 19.0704 12.6752 19.2357 12.5514 19.3576C12.4276 19.4795 12.2597 19.5479 12.0846 19.5479ZM6.16937 19.5479H3.54054C3.36545 19.5479 3.19753 19.4795 3.07372 19.3576C2.94992 19.2357 2.88036 19.0704 2.88036 18.898C2.88036 18.7256 2.94992 18.5603 3.07372 18.4384C3.19753 18.3165 3.36545 18.248 3.54054 18.248H6.16937C6.25607 18.2481 6.3419 18.265 6.42196 18.2978C6.50203 18.3305 6.57475 18.3785 6.636 18.4389C6.69724 18.4993 6.74579 18.571 6.77889 18.6499C6.81199 18.7288 6.82898 18.8133 6.82889 18.8986C6.8288 18.984 6.81164 19.0685 6.77839 19.1473C6.74513 19.2261 6.69643 19.2977 6.63506 19.358C6.5737 19.4183 6.50087 19.4661 6.42074 19.4987C6.34061 19.5313 6.25475 19.548 6.16805 19.5479H6.16937ZM17.8423 6.54891H15.3706C15.1955 6.54891 15.0276 6.48044 14.9038 6.35855C14.78 6.23666 14.7104 6.07134 14.7104 5.89896C14.7104 5.72658 14.78 5.56126 14.9038 5.43938C15.0276 5.31749 15.1955 5.24901 15.3706 5.24901H17.8423C18.0174 5.24918 18.1853 5.31782 18.309 5.43983C18.4326 5.56185 18.502 5.72723 18.5018 5.89961C18.5017 6.07199 18.4319 6.23724 18.308 6.35901C18.1841 6.48077 18.0161 6.54908 17.841 6.54891H17.8423ZM12.0846 6.54891H9.45541C9.28032 6.54891 9.1124 6.48044 8.9886 6.35855C8.86479 6.23666 8.79523 6.07134 8.79523 5.89896C8.79523 5.72658 8.86479 5.56126 8.9886 5.43938C9.1124 5.31749 9.28032 5.24901 9.45541 5.24901H12.0846C12.2597 5.24901 12.4276 5.31749 12.5514 5.43938C12.6752 5.56126 12.7448 5.72658 12.7448 5.89896C12.7448 6.07134 12.6752 6.23666 12.5514 6.35855C12.4276 6.48044 12.2597 6.54891 12.0846 6.54891ZM6.16937 6.54891H3.54054C3.36545 6.54891 3.19753 6.48044 3.07372 6.35855C2.94992 6.23666 2.88036 6.07134 2.88036 5.89896C2.88036 5.72658 2.94992 5.56126 3.07372 5.43938C3.19753 5.31749 3.36545 5.24901 3.54054 5.24901H6.16937C6.25607 5.24909 6.3419 5.26599 6.42196 5.29873C6.50203 5.33147 6.57475 5.37942 6.636 5.43983C6.69724 5.50025 6.74579 5.57195 6.77889 5.65084C6.81199 5.72972 6.82898 5.81426 6.82889 5.89961C6.8288 5.98496 6.81164 6.06946 6.77839 6.14829C6.74513 6.22711 6.69643 6.29871 6.63506 6.35901C6.5737 6.4193 6.50087 6.4671 6.42074 6.49969C6.34061 6.53227 6.25475 6.549 6.16805 6.54891H6.16937ZM12.0846 9.14872H9.45541C9.28032 9.14872 9.1124 9.08024 8.9886 8.95835C8.86479 8.83646 8.79523 8.67115 8.79523 8.49877C8.79523 8.32639 8.86479 8.16107 8.9886 8.03918C9.1124 7.91729 9.28032 7.84882 9.45541 7.84882H12.0846C12.2597 7.84882 12.4276 7.91729 12.5514 8.03918C12.6752 8.16107 12.7448 8.32639 12.7448 8.49877C12.7448 8.67115 12.6752 8.83646 12.5514 8.95835C12.4276 9.08024 12.2597 9.14872 12.0846 9.14872ZM6.16937 9.14872H3.54054C3.36545 9.14872 3.19753 9.08024 3.07372 8.95835C2.94992 8.83646 2.88036 8.67115 2.88036 8.49877C2.88036 8.32639 2.94992 8.16107 3.07372 8.03918C3.19753 7.91729 3.36545 7.84882 3.54054 7.84882H6.16937C6.25607 7.8489 6.3419 7.8658 6.42196 7.89854C6.50203 7.93128 6.57475 7.97923 6.636 8.03964C6.69724 8.10006 6.74579 8.17175 6.77889 8.25064C6.81199 8.32953 6.82898 8.41406 6.82889 8.49942C6.8288 8.58477 6.81164 8.66927 6.77839 8.74809C6.74513 8.82692 6.69643 8.89852 6.63506 8.95881C6.5737 9.01911 6.50087 9.06691 6.42074 9.09949C6.34061 9.13208 6.25475 9.1488 6.16805 9.14872H6.16937ZM12.0846 11.7485H9.45541C9.28032 11.7485 9.1124 11.68 8.9886 11.5582C8.86479 11.4363 8.79523 11.271 8.79523 11.0986C8.79523 10.9262 8.86479 10.7609 8.9886 10.639C9.1124 10.5171 9.28032 10.4486 9.45541 10.4486H12.0846C12.2597 10.4486 12.4276 10.5171 12.5514 10.639C12.6752 10.7609 12.7448 10.9262 12.7448 11.0986C12.7448 11.271 12.6752 11.4363 12.5514 11.5582C12.4276 11.68 12.2597 11.7485 12.0846 11.7485ZM6.16937 11.7485H3.54054C3.36545 11.7485 3.19753 11.68 3.07372 11.5582C2.94992 11.4363 2.88036 11.271 2.88036 11.0986C2.88036 10.9262 2.94992 10.7609 3.07372 10.639C3.19753 10.5171 3.36545 10.4486 3.54054 10.4486H6.16937C6.34446 10.4488 6.51231 10.5174 6.636 10.6394C6.75968 10.7615 6.82907 10.9268 6.82889 11.0992C6.82872 11.2716 6.75899 11.4369 6.63506 11.5586C6.51113 11.6804 6.34314 11.7487 6.16805 11.7485H6.16937Z" fill="#5CFC4E"/>
    <path fill-rule="evenodd" clip-rule="evenodd" d="M24.8833 23.9176C24.915 23.9221 24.9967 23.9281 25.0305 23.9283C25.2485 23.9263 25.4596 23.8527 25.6304 23.7192C25.8012 23.5856 25.9218 23.3997 25.973 23.191C26.0243 22.9822 26.0033 22.7626 25.9133 22.5669C25.8234 22.3713 25.6696 22.2108 25.4765 22.111C22.847 20.7552 21.5689 19.4833 21.7032 16.1922H24.5149C24.6386 16.1918 24.7596 16.1572 24.8642 16.0924C24.9688 16.0276 25.0529 15.9352 25.1068 15.8257C25.1607 15.7162 25.1823 15.594 25.1691 15.4729C25.1559 15.3519 25.1085 15.237 25.0322 15.1412L20.0954 8.91764C20.034 8.84019 19.9555 8.77753 19.8659 8.73444C19.7762 8.69134 19.6777 8.66895 19.578 8.66895C19.4782 8.66895 19.3797 8.69134 19.2901 8.73444C19.2004 8.77753 19.1219 8.84019 19.0605 8.91764L14.1231 15.1412C14.0468 15.237 13.9994 15.3519 13.9862 15.4729C13.973 15.594 13.9946 15.7162 14.0485 15.8257C14.1024 15.9352 14.1864 16.0276 14.2911 16.0924C14.3957 16.1572 14.5167 16.1918 14.6403 16.1922H17.4273C17.6841 22.3453 21.2428 23.3888 24.8833 23.9176ZM15.9914 14.8923H18.071C18.2452 14.8926 18.4122 14.9608 18.5354 15.0821C18.6586 15.2034 18.7279 15.3678 18.7282 15.5393C18.7483 20.219 20.5876 21.6404 23.2174 22.2875C21.1853 20.8715 20.1327 19.0254 20.4318 15.4883C20.4449 15.3262 20.5195 15.1748 20.6408 15.0644C20.762 14.954 20.9211 14.8925 21.0863 14.8923H23.1659L19.5778 10.3719L15.9914 14.8923Z" fill="white"/>
</svg>
