<svg width="34" height="20" viewBox="0 0 34 20" fill="none" xmlns="http://www.w3.org/2000/svg">
<path d="M2.34723 17.0534H0.948216C0.468716 17.0534 0.0795898 16.6758 0.0795898 16.2099V11.0104C0.0795898 10.8661 0.116903 10.7304 0.183051 10.6116L3.17418 4.21085C3.31858 3.89981 3.63405 3.71536 3.96428 3.71489L9.39288 3.71324C9.87238 3.71324 10.2615 4.09086 10.2615 4.55671V16.2101C10.2615 16.6758 9.87263 17.0536 9.39288 17.0536H7.9956C7.8524 17.5065 7.5963 17.9121 7.26002 18.2387C6.72504 18.7582 5.98605 19.0796 5.17095 19.0796C4.35951 19.0796 3.62152 18.7582 3.08529 18.2387L3.0819 18.2354C2.7456 17.9074 2.49071 17.5037 2.34701 17.0534L2.34723 17.0534ZM17.1152 12.9015C16.6357 12.9015 16.2466 12.5239 16.2466 12.058C16.2466 11.5924 16.6355 11.2145 17.1152 11.2145H22.5431C23.0226 11.2145 23.4117 11.5922 23.4117 12.058C23.4117 12.5236 23.0228 12.9015 22.5431 12.9015H17.1152ZM15.7261 5.91833C15.2466 5.91833 14.8575 5.54072 14.8575 5.07486C14.8575 4.60925 15.2464 4.23139 15.7261 4.23139H23.8672C24.3467 4.23139 24.7358 4.60901 24.7358 5.07486C24.7358 5.54048 24.3469 5.91833 23.8672 5.91833H15.7261ZM18.9472 9.41009C18.4677 9.41009 18.0786 9.03247 18.0786 8.56662C18.0786 8.101 18.4675 7.72315 18.9472 7.72315H28.1737C28.6532 7.72315 29.0423 8.10076 29.0423 8.56662C29.0423 9.03223 28.6535 9.41009 28.1737 9.41009H18.9472ZM25.6418 13.3409C26.4569 13.3409 27.1959 13.6622 27.7308 14.1817C28.0672 14.5083 28.3228 14.9134 28.4664 15.3666H31.3419V1.76651H12.5583V15.3666H22.8176C22.9612 14.9153 23.2169 14.5109 23.5527 14.1846C24.0872 13.6623 24.8267 13.3409 25.6418 13.3409ZM28.4664 17.0533C28.3232 17.5062 28.0671 17.9118 27.7308 18.2384C27.1959 18.7579 26.4569 19.0793 25.6418 19.0793C24.8267 19.0793 24.0873 18.7579 23.5527 18.2386L23.5023 18.1852C23.191 17.8676 22.9538 17.4817 22.8176 17.0531H11.69C11.2105 17.0531 10.8213 16.6755 10.8213 16.2096V0.92306C10.8213 0.457447 11.2102 0.0795898 11.69 0.0795898H32.211C32.6905 0.0795898 33.0796 0.457206 33.0796 0.92306V16.2096C33.0796 16.6752 32.6907 17.0531 32.211 17.0531H28.4668L28.4664 17.0533ZM26.5034 15.3736C26.2834 15.16 25.9783 15.0276 25.6418 15.0276C25.3055 15.0276 24.9997 15.1603 24.7802 15.3734C24.5599 15.5854 24.424 15.8818 24.424 16.2101C24.424 16.5221 24.5466 16.8053 24.746 17.0159L24.7802 17.047C24.9997 17.2601 25.3052 17.3928 25.6418 17.3928C25.9781 17.3928 26.2834 17.2601 26.5034 17.0467C26.7229 16.8336 26.8596 16.5369 26.8596 16.2101C26.8596 15.8835 26.7229 15.587 26.5034 15.3739L26.5034 15.3736ZM7.99516 15.3666H8.5253V5.39962H4.52289L2.29525 10.1666H5.48821V6.89436C5.48821 6.42875 5.87709 6.05089 6.35684 6.05089C6.83634 6.05089 7.22546 6.42851 7.22546 6.89436V11.01C7.22546 11.4757 6.83659 11.8535 6.35684 11.8535H1.8177V15.3664H2.34687C2.49006 14.9135 2.74617 14.5084 3.08294 14.1813C3.61744 13.6623 4.35691 13.3407 5.17201 13.3407C5.98345 13.3407 6.72126 13.6621 7.25742 14.1816L7.26081 14.1848C7.59712 14.5128 7.85201 14.9165 7.99571 15.3664L7.99516 15.3666ZM6.03282 15.3706C5.815 15.1586 5.51019 15.0276 5.1717 15.0276C4.83539 15.0276 4.52959 15.1603 4.31008 15.3734C4.09008 15.587 3.95367 15.8833 3.95367 16.2101C3.95367 16.5392 4.08862 16.8352 4.30693 17.0467L4.31032 17.05C4.52814 17.262 4.83295 17.3931 5.17194 17.3931C5.50824 17.3931 5.81354 17.2604 6.03355 17.047C6.25307 16.8338 6.38972 16.5371 6.38972 16.2103C6.38972 15.8816 6.25477 15.5857 6.03646 15.3741L6.03282 15.3706Z" fill="#42E433"/>
</svg>
