<svg width="26" height="26" viewBox="0 0 26 26" fill="none"
    xmlns="http://www.w3.org/2000/svg">
    <path fill-rule="evenodd" clip-rule="evenodd" d="M14.2187 7.95567L13 6.7171L11.7813 7.95567C11.2047 8.54168 10.4509 8.91189 9.64221 9.00629L7.93289 9.20581L8.12253 10.9498C8.21225 11.7749 8.02608 12.6068 7.59421 13.3105L6.68142 14.7979L8.13658 15.7341C8.82507 16.177 9.34669 16.8441 9.61688 17.6272L10.188 19.2824L11.8129 18.7058C12.5817 18.4329 13.4183 18.4329 14.1871 18.7058L15.812 19.2824L16.3831 17.6272C16.6533 16.8441 17.1749 16.177 17.8634 15.7341L19.3186 14.7979L18.4058 13.3105C17.9739 12.6068 17.7877 11.7749 17.8775 10.9498L18.0671 9.20581L16.3578 9.00629C15.5491 8.91189 14.7953 8.54168 14.2187 7.95567ZM14.2749 5.41226C13.5701 4.69591 12.4299 4.69591 11.7251 5.41226L10.5064 6.65083C10.2181 6.94383 9.8412 7.12894 9.43683 7.17614L7.72752 7.37566C6.73891 7.49105 6.02804 8.4002 6.13771 9.40885L6.32735 11.1528C6.37221 11.5654 6.27912 11.9813 6.06319 12.3332L5.1504 13.8206C4.62247 14.6808 4.87618 15.8145 5.71779 16.3559L7.17295 17.2921C7.51719 17.5135 7.778 17.8471 7.9131 18.2387L8.48419 19.8939C8.81448 20.8512 9.84173 21.3557 10.7815 21.0222L12.4064 20.4456C12.7908 20.3092 13.2092 20.3092 13.5936 20.4456L15.2185 21.0222C16.1583 21.3557 17.1855 20.8512 17.5158 19.8939L18.0869 18.2387C18.222 17.8471 18.4828 17.5135 18.827 17.2921L20.2822 16.3559C21.1238 15.8145 21.3775 14.6808 20.8496 13.8206L19.9368 12.3332C19.7209 11.9813 19.6278 11.5654 19.6727 11.1528L19.8623 9.40885C19.972 8.40019 19.2611 7.49105 18.2725 7.37566L16.5632 7.17614C16.1588 7.12894 15.7819 6.94383 15.4936 6.65083L14.2749 5.41226Z" fill="#5CFC4E"/>
    <path fill-rule="evenodd" clip-rule="evenodd" d="M13.0003 14.2482C13.4991 14.2482 13.9034 13.8358 13.9034 13.3271C13.9034 12.8184 13.4991 12.4061 13.0003 12.4061C12.5015 12.4061 12.0972 12.8184 12.0972 13.3271C12.0972 13.8358 12.5015 14.2482 13.0003 14.2482ZM13.0003 16.0903C14.4966 16.0903 15.7096 14.8532 15.7096 13.3271C15.7096 11.8011 14.4966 10.564 13.0003 10.564C11.504 10.564 10.291 11.8011 10.291 13.3271C10.291 14.8532 11.504 16.0903 13.0003 16.0903Z" fill="white"/>
    <path d="M13 0C10.4288 0 7.91543 0.762437 5.77759 2.19089C3.63975 3.61935 1.97351 5.64968 0.989572 8.02511C0.00563265 10.4006 -0.251811 13.0144 0.249797 15.5362C0.751405 18.0579 1.98953 20.3743 3.80762 22.1924C5.6257 24.0105 7.94208 25.2486 10.4638 25.7502C12.9856 26.2518 15.5994 25.9944 17.9749 25.0104C20.3503 24.0265 22.3806 22.3602 23.8091 20.2224C25.2376 18.0846 26 15.5712 26 13C25.9963 9.55333 24.6254 6.24889 22.1883 3.81173C19.7511 1.37456 16.4467 0.00372784 13 0ZM13 23.8333C10.8574 23.8333 8.76286 23.198 6.98133 22.0076C5.19979 20.8172 3.81126 19.1253 2.99131 17.1457C2.17136 15.1662 1.95683 12.988 2.37483 10.8865C2.79284 8.78506 3.82461 6.85474 5.33968 5.33968C6.85475 3.82461 8.78507 2.79283 10.8865 2.37483C12.988 1.95682 15.1662 2.17136 17.1457 2.9913C19.1253 3.81125 20.8172 5.19979 22.0076 6.98132C23.198 8.76285 23.8333 10.8574 23.8333 13C23.8302 15.8722 22.6878 18.6259 20.6568 20.6568C18.6259 22.6878 15.8722 23.8302 13 23.8333Z" fill="#5CFC4E"/>
</svg>
