<svg width="85" height="84" viewBox="0 0 85 84" fill="none"
    xmlns="http://www.w3.org/2000/svg">
    <path d="M21.5 51.4548L25.5357 47.9364L27.2809 46.4384C28.711 45.2307 29.8018 44.2669 30.5532 43.5469C31.3288 42.827 31.959 42.0954 32.4438 41.3522C32.9528 40.609 33.2073 39.8775 33.2073 39.1575C33.2073 36.9976 31.9348 35.9177 29.3897 35.9177C28.1535 35.9177 26.9295 36.1267 25.7175 36.5448C24.5298 36.9628 23.427 37.5434 22.409 38.2866V32.3992C23.4997 31.6793 24.7722 31.1219 26.2265 30.7271C27.6809 30.309 29.2322 30.1 30.8804 30.1C32.771 30.1 34.4071 30.4368 35.7887 31.1103C37.1703 31.7838 38.2247 32.7127 38.9519 33.8972C39.679 35.0816 40.0426 36.417 40.0426 37.9034C40.0426 39.6917 39.6063 41.2593 38.7337 42.6063C37.8854 43.9301 36.5038 45.4281 34.5889 47.1003L31.353 49.922H40.8425V54.9734H21.5V51.4548Z" fill="#5CFC4E"/>
    <path d="M53.6053 49.9569H41.9344V46.1248L53.9689 30.6225H60.3316V45.0798H63.931V49.9569H60.3316V54.9734H53.6053V49.9569ZM54.587 45.0798V38.1124L49.2423 45.0798H54.587Z" fill="#5CFC4E"/>
    <path fill-rule="evenodd" clip-rule="evenodd" d="M39 3.5C39 1.567 40.567 0 42.5 0C65.696 0 84.5 18.804 84.5 42C84.5 65.196 65.696 84 42.5 84C19.304 84 0.5 65.196 0.5 42C0.5 32.3866 3.73274 23.5246 9.16539 16.447L4.50133 15.7067C2.59224 15.4037 1.29025 13.6104 1.59327 11.7013C1.89629 9.79224 3.68957 8.49025 5.59867 8.79327L16.6241 10.5433C18.324 10.8131 19.5754 12.2788 19.5754 14V26.25C19.5754 28.183 18.0084 29.75 16.0754 29.75C14.1424 29.75 12.5754 28.183 12.5754 26.25V23.8361C9.35364 29.1317 7.5 35.3481 7.5 42C7.5 61.33 23.17 77 42.5 77C61.83 77 77.5 61.33 77.5 42C77.5 22.67 61.83 7 42.5 7C40.567 7 39 5.433 39 3.5Z" fill="#5CFC4E"/>
</svg>
