<svg width="683" height="556" viewBox="0 0 683 556" fill="none" xmlns="http://www.w3.org/2000/svg">
<g opacity="0.8">
<g style="mix-blend-mode:multiply" opacity="0.35">
<path d="M169.068 416.901C169.3 422.633 136.851 428.456 96.4005 428.438C55.9504 428.42 23.5187 422.633 23.7335 416.901C23.9483 411.168 56.4874 407.621 96.4005 407.603C136.314 407.585 168.853 411.15 169.068 416.901Z" fill="#969696"/>
</g>
<path d="M99.2995 268.062H93.214C92.0278 268.117 90.8874 268.537 89.9487 269.265C89.0101 269.993 88.3189 270.993 87.9698 272.129L39.376 405.775C76.544 416.641 116.041 416.641 153.209 405.775C136.981 361.227 120.76 316.678 104.544 272.129C104.195 270.993 103.503 269.993 102.565 269.265C101.626 268.537 100.486 268.117 99.2995 268.062V268.062Z" fill="#5CFC4E"/>
<mask id="mask0_701_1692" style="mask-type:alpha" maskUnits="userSpaceOnUse" x="39" y="268" width="115" height="146">
<path d="M99.2995 268.062H93.214C92.0278 268.117 90.8874 268.537 89.9487 269.265C89.0101 269.993 88.3189 270.993 87.9698 272.129L39.376 405.775C76.544 416.641 116.041 416.641 153.209 405.775C136.981 361.227 120.76 316.678 104.544 272.129C104.195 270.993 103.503 269.993 102.565 269.265C101.626 268.537 100.486 268.117 99.2995 268.062V268.062Z" fill="url(#paint0_linear_701_1692)"/>
</mask>
<g mask="url(#mask0_701_1692)">
<path d="M147.338 301.491H43.3311V329.098H147.338V301.491Z" fill="white"/>
<path d="M147.338 355.469H43.3311V383.076H147.338V355.469Z" fill="white"/>
</g>
<g style="mix-blend-mode:multiply">
<path d="M105.6 356.222C103.976 364.255 101.695 372.14 98.7809 379.798C96.4527 386.961 92.9637 393.691 88.4536 399.72C84.856 403.679 81.0185 407.412 76.9629 410.899L153.228 405.775L104.544 272.129C104.195 270.993 103.504 269.993 102.565 269.265C101.627 268.537 100.486 268.117 99.3 268.062H98.6019C107.587 296.476 111.184 326.788 105.6 356.222Z" fill="#CDD4DE"/>
</g>
<path d="M163.555 415.879C119.096 424.424 73.4189 424.424 28.96 415.879C28.3035 415.771 27.6753 415.533 27.1125 415.178C26.5497 414.823 26.0637 414.359 25.6832 413.813C25.3028 413.267 25.0356 412.65 24.8975 411.998C24.7594 411.347 24.7531 410.675 24.8791 410.021L25.4698 407.101C25.7536 405.811 26.5308 404.684 27.6347 403.96C28.7387 403.237 30.0818 402.975 31.3762 403.231C74.2326 411.472 118.265 411.472 161.121 403.231C162.416 402.971 163.761 403.23 164.866 403.954C165.971 404.678 166.748 405.809 167.027 407.101C167.242 408.068 167.439 409.053 167.636 410.021C167.757 410.674 167.747 411.345 167.607 411.994C167.467 412.644 167.199 413.259 166.819 413.804C166.44 414.349 165.955 414.813 165.395 415.169C164.835 415.526 164.209 415.767 163.555 415.879V415.879Z" fill="#5CFC4E"/>
<g style="mix-blend-mode:multiply" opacity="0.35">
<path d="M648.455 416.901C648.67 422.633 616.131 428.456 575.788 428.438C535.446 428.42 502.889 422.633 503.121 416.901C503.354 411.168 535.857 407.621 575.788 407.603C615.72 407.585 648.223 411.15 648.455 416.901Z" fill="#969696"/>
</g>
<path d="M578.67 268.062H572.584C571.405 268.127 570.274 268.551 569.343 269.278C568.411 270.005 567.725 271 567.376 272.129L518.746 405.775C555.914 416.64 595.411 416.64 632.579 405.775C616.387 361.215 600.177 316.666 583.95 272.129C583.598 270.988 582.902 269.983 581.956 269.255C581.01 268.526 579.862 268.11 578.67 268.062V268.062Z" fill="#5CFC4E"/>
<mask id="mask1_701_1692" style="mask-type:alpha" maskUnits="userSpaceOnUse" x="518" y="268" width="115" height="146">
<path d="M578.671 268.062H572.585C571.406 268.127 570.275 268.551 569.343 269.278C568.412 270.005 567.726 271 567.377 272.129L518.747 405.775C555.915 416.64 595.412 416.64 632.58 405.775C616.388 361.215 600.178 316.666 583.951 272.129C583.599 270.988 582.903 269.983 581.957 269.255C581.011 268.526 579.863 268.11 578.671 268.062V268.062Z" fill="url(#paint1_linear_701_1692)"/>
</mask>
<g mask="url(#mask1_701_1692)">
<path d="M626.728 301.492H522.721V329.099H626.728V301.492Z" fill="white"/>
<path d="M626.728 355.469H522.721V383.076H626.728V355.469Z" fill="white"/>
</g>
<g style="mix-blend-mode:multiply">
<path d="M584.879 356.222C583.281 364.255 581.018 372.141 578.114 379.798C575.519 386.785 572.53 393.897 567.769 399.72C564.155 403.669 560.306 407.397 556.242 410.881L632.489 405.757L583.859 272.111C583.51 270.975 582.819 269.975 581.88 269.247C580.942 268.519 579.801 268.099 578.615 268.044H577.917C586.956 296.476 590.643 326.788 584.879 356.222Z" fill="#CDD4DE"/>
</g>
<path d="M642.924 415.879C598.465 424.425 552.788 424.425 508.329 415.879C507.675 415.767 507.049 415.526 506.489 415.17C505.928 414.813 505.444 414.349 505.065 413.804C504.685 413.259 504.417 412.644 504.277 411.995C504.137 411.345 504.127 410.674 504.248 410.021C504.445 409.036 504.642 408.068 504.857 407.101C505.14 405.811 505.917 404.684 507.021 403.961C508.125 403.237 509.468 402.976 510.763 403.231C553.619 411.472 597.651 411.472 640.508 403.231C641.802 402.976 643.145 403.237 644.249 403.961C645.353 404.684 646.13 405.811 646.414 407.101L647.005 410.021C647.131 410.675 647.124 411.347 646.986 411.999C646.848 412.65 646.581 413.267 646.201 413.813C645.82 414.359 645.334 414.823 644.771 415.178C644.209 415.533 643.58 415.772 642.924 415.879V415.879Z" fill="#5CFC4E"/>
<g style="mix-blend-mode:multiply" opacity="0.35">
<path d="M90.1891 488.041C124.579 488.041 152.457 484.761 152.457 480.714C152.457 476.667 124.579 473.387 90.1891 473.387C55.7993 473.387 27.9209 476.667 27.9209 480.714C27.9209 484.761 55.7993 488.041 90.1891 488.041Z" fill="#9E9E9E"/>
</g>
<path d="M51.5114 464.608H28.8164V473.547H51.5114V464.608Z" fill="#737373"/>
<path d="M151.563 463.748H128.868V473.547H151.563V463.748Z" fill="#737373"/>
<path d="M28.5117 479.675C36.0469 484.458 56.0035 484.476 63.7356 479.352L115.999 479.066C117.018 479.665 118.106 480.141 119.238 480.481C128.617 483.831 144.6 482.953 151.562 478.887V471.541C151.562 471.541 130.46 477.722 120.026 469.212L61.8741 468.693C61.8741 468.693 40.9331 475.178 28.5117 472.186V479.675Z" fill="#636363"/>
<path d="M119.077 462.709C117.609 463.246 116.876 463.766 115.784 464.16L64.2367 464.447C63.1449 464.052 62.4469 463.533 60.9971 463.031C51.6184 459.681 35.6352 460.559 28.6549 464.626H39.555C45.354 464.626 49.6854 466.131 49.6496 468.209C49.6138 470.287 45.2108 471.881 39.4118 471.917L28.5117 472.222C36.0469 477.005 56.0035 477.041 63.7356 471.899L115.999 471.631C117.022 472.223 118.109 472.698 119.238 473.046C128.617 476.378 144.6 475.518 151.562 471.433H140.68C134.881 471.433 130.55 469.929 130.586 467.85C130.621 465.772 135.007 464.16 140.823 464.142H151.706C144.976 459.824 128.581 459.269 119.077 462.709Z" fill="#DBDBDB"/>
<g style="mix-blend-mode:multiply" opacity="0.35">
<path d="M124.536 522.348C124.536 526.397 96.6508 529.693 62.2682 529.693C27.8855 529.693 0 526.397 0 522.348C0 518.299 27.8855 515.021 62.2682 515.021C96.6508 515.021 124.536 518.299 124.536 522.348Z" fill="#9E9E9E"/>
</g>
<path d="M23.5896 506.26H0.894531V515.2H23.5896V506.26Z" fill="#737373"/>
<path d="M123.641 505.4H100.946V515.199H123.641V505.4Z" fill="#737373"/>
<path d="M0.59082 521.327C8.1081 526.11 28.0826 526.128 35.7968 521.004L88.0598 520.718C89.0809 521.314 90.1681 521.789 91.2993 522.133C100.678 525.483 116.661 524.605 123.642 520.52V513.175C123.642 513.175 102.539 519.374 92.0869 510.864L34.0069 510.345C34.0069 510.345 12.9943 516.83 0.59082 513.838V521.327Z" fill="#636363"/>
<path d="M91.1383 504.361C89.6706 504.881 88.9368 505.418 87.845 505.812L36.2979 506.081C35.224 505.705 34.5081 505.185 33.0583 504.666C23.6975 501.334 7.69644 502.193 0.734007 506.278H11.6162C17.4331 506.278 21.7466 507.783 21.7108 509.861C21.675 511.939 17.2899 513.552 11.473 513.569L0.59082 513.892C8.1081 518.675 28.0826 518.693 35.7968 513.569L88.0598 513.283C89.0809 513.879 90.1681 514.354 91.2994 514.698C100.678 518.048 116.661 517.17 123.642 513.104H112.742C106.942 513.104 102.611 511.599 102.647 509.521C102.683 507.443 107.086 505.938 112.885 505.812H123.785C116.966 501.477 100.642 500.921 91.1383 504.361Z" fill="#DBDBDB"/>
<g style="mix-blend-mode:multiply" opacity="0.35">
<path d="M159.976 526.253C151.438 526.253 144.529 523.244 144.529 519.553C144.529 515.863 151.438 512.853 159.976 512.853C168.513 512.853 175.404 515.845 175.404 519.535C175.404 523.226 168.495 526.253 159.976 526.253Z" fill="#9E9E9E"/>
</g>
<path d="M175.207 512.584L167.618 506.905H152.458L144.869 512.584V518.747L152.458 524.426H167.618L175.207 518.747V512.584Z" fill="#636363"/>
<path d="M167.618 506.744H152.458L144.869 512.369L152.458 518.048H167.618L175.207 512.369L167.618 506.744Z" fill="#DBDBDB"/>
<path d="M160.047 514.788C163.052 514.788 165.488 513.737 165.488 512.441C165.488 511.145 163.052 510.094 160.047 510.094C157.042 510.094 154.605 511.145 154.605 512.441C154.605 513.737 157.042 514.788 160.047 514.788Z" fill="#616161"/>
<g style="mix-blend-mode:multiply" opacity="0.35">
<path d="M210.233 545.691C201.696 545.691 194.787 542.682 194.787 538.991C194.787 535.301 201.696 532.273 210.233 532.273C218.771 532.273 225.662 535.283 225.662 538.991C225.662 542.699 218.753 545.691 210.233 545.691Z" fill="#9E9E9E"/>
</g>
<path d="M225.465 532.022L217.894 526.343H202.716L195.146 532.022V538.167L202.716 543.846H217.894L225.465 538.167V532.022Z" fill="#636363"/>
<path d="M217.893 526.182H202.715L195.091 531.861L202.662 537.54H217.84L225.411 531.861L217.893 526.182Z" fill="#DBDBDB"/>
<path d="M210.305 534.225C207.298 534.225 204.936 533.168 204.936 531.861C204.936 530.553 207.37 529.514 210.305 529.514C213.24 529.514 215.675 530.571 215.675 531.861C215.675 533.15 213.312 534.225 210.305 534.225Z" fill="#616161"/>
<g style="mix-blend-mode:multiply" opacity="0.35">
<path d="M336.685 373.653C442.849 373.653 528.912 368.4 528.912 361.919C528.912 355.438 442.849 350.185 336.685 350.185C230.52 350.185 144.457 355.438 144.457 361.919C144.457 368.4 230.52 373.653 336.685 373.653Z" fill="#969696"/>
</g>
<path d="M192.031 54.0319H203.754C204.729 54.0248 205.696 54.211 206.599 54.5796C207.502 54.9483 208.324 55.4922 209.016 56.1799C209.708 56.8677 210.257 57.6857 210.632 58.5869C211.007 59.4881 211.2 60.4547 211.2 61.4308V353.177H184.639V61.4308C184.639 59.4685 185.417 57.5866 186.804 56.199C188.19 54.8115 190.07 54.0319 192.031 54.0319V54.0319Z" fill="#363636"/>
<g opacity="0.7">
<g style="mix-blend-mode:multiply">
<path d="M211.36 61.4302C211.36 59.4802 210.591 57.609 209.22 56.2235C207.85 54.838 205.988 54.0501 204.04 54.0312H192.316C191.713 54.0333 191.113 54.1054 190.527 54.2462H197.149C199.109 54.2462 200.99 55.0258 202.376 56.4133C203.762 57.8009 204.541 59.6828 204.541 61.6451V156.595L184.853 159.228C190.712 161.839 195.689 166.093 199.183 171.476C202.677 176.858 204.538 183.139 204.541 189.558V226.965L184.745 302.495L184.459 343.269H204.541H211.36V61.4302Z" fill="#666666"/>
</g>
</g>
<path d="M469.812 54.0317H481.464C483.424 54.0317 485.304 54.8113 486.691 56.1988C488.077 57.5864 488.856 59.4683 488.856 61.4306V353.177H462.42V61.4306C462.42 59.4683 463.199 57.5864 464.585 56.1988C465.971 54.8113 467.851 54.0317 469.812 54.0317Z" fill="#363636"/>
<g style="mix-blend-mode:multiply" opacity="0.7">
<path d="M489.142 61.4302C489.142 59.4678 488.363 57.5859 486.977 56.1983C485.59 54.8108 483.71 54.0312 481.75 54.0312H470.026C469.423 54.0333 468.823 54.1054 468.236 54.2462H474.859C476.819 54.2462 478.699 55.0258 480.086 56.4133C481.472 57.8009 482.251 59.6828 482.251 61.6451V156.595L462.563 159.228C468.422 161.839 473.399 166.093 476.893 171.476C480.387 176.858 482.248 183.139 482.251 189.558V226.965L462.455 302.495L462.169 343.269H482.251H489.07L489.142 61.4302Z" fill="#666666"/>
</g>
<path d="M221.832 342.463H173.936C170.911 342.463 168.459 344.918 168.459 347.945V356.115C168.459 359.142 170.911 361.597 173.936 361.597H221.832C224.856 361.597 227.309 359.142 227.309 356.115V347.945C227.309 344.918 224.856 342.463 221.832 342.463Z" fill="#363636"/>
<path d="M499.613 342.463H451.717C448.692 342.463 446.24 344.918 446.24 347.945V356.115C446.24 359.142 448.692 361.597 451.717 361.597H499.613C502.638 361.597 505.09 359.142 505.09 356.115V347.945C505.09 344.918 502.638 342.463 499.613 342.463Z" fill="#363636"/>
<g style="mix-blend-mode:multiply" opacity="0.7">
<path d="M199.978 354.914C190.098 354.825 173.13 356.24 168.889 345.849C168.609 346.513 168.463 347.225 168.459 347.945V356.114C168.459 357.568 169.036 358.963 170.063 359.991C171.09 361.019 172.483 361.596 173.936 361.596H221.939C223.392 361.596 224.785 361.019 225.812 359.991C226.839 358.963 227.416 357.568 227.416 356.114V347.945C227.411 347.238 227.271 346.539 227.004 345.885C223.317 354.61 208.623 355.004 199.978 354.914Z" fill="#666666"/>
</g>
<g style="mix-blend-mode:multiply" opacity="0.7">
<path d="M477.759 354.914C467.879 354.825 450.912 356.24 446.67 345.849C446.39 346.513 446.244 347.225 446.24 347.945V356.114C446.24 357.568 446.817 358.963 447.844 359.991C448.871 361.019 450.265 361.596 451.717 361.596H499.631C501.083 361.596 502.476 361.019 503.504 359.991C504.531 358.963 505.108 357.568 505.108 356.114V347.945C505.103 347.238 504.963 346.539 504.696 345.885C501.152 354.61 486.404 355.004 477.759 354.914Z" fill="#666666"/>
</g>
<path d="M510.067 82.8389H157.435V159.354H510.067V82.8389Z" fill="url(#paint2_linear_701_1692)"/>
<path d="M180.72 81.0654L154.123 107.669V143.284L216.015 81.3521L215.729 81.0654H180.72Z" fill="#5CFC4E"/>
<path d="M207.066 161.146L286.785 81.3521L286.499 81.0654H251.49L171.484 161.146H207.066Z" fill="#5CFC4E"/>
<path d="M277.836 161.146L357.555 81.3521L357.269 81.0654H322.242L242.236 161.146H277.836Z" fill="#5CFC4E"/>
<path d="M348.588 161.146L428.325 81.3521L428.038 81.0654H393.011L313.006 161.146H348.588Z" fill="#5CFC4E"/>
<path d="M419.357 161.146L499.076 81.3521L498.808 81.0654H463.781L383.775 161.146H419.357Z" fill="#5CFC4E"/>
<path d="M454.546 161.145H490.128L513.395 137.856V102.241L454.546 161.145Z" fill="#5CFC4E"/>
<g style="mix-blend-mode:multiply">
<path d="M502.942 83.2329L502.709 119.6C502.709 137.175 501.903 153.101 470.904 151.435H159.903C159.119 151.432 158.338 151.335 157.576 151.149C157.935 153.458 159.106 155.562 160.878 157.083C162.65 158.604 164.907 159.441 167.241 159.443H500.275C501.571 159.448 502.855 159.195 504.053 158.699C505.251 158.203 506.338 157.474 507.253 156.554C508.167 155.634 508.889 154.542 509.378 153.34C509.867 152.139 510.113 150.852 510.101 149.554V92.6383C510.094 90.5041 509.39 88.4306 508.098 86.733C506.806 85.0354 504.995 83.8064 502.942 83.2329Z" fill="#CDD4DE"/>
</g>
<path d="M510.067 227.145H157.435V303.66H510.067V227.145Z" fill="url(#paint3_linear_701_1692)"/>
<path d="M180.72 225.353L154.123 251.975V287.59L216.015 225.64L215.729 225.353H180.72Z" fill="#5CFC4E"/>
<path d="M207.066 305.433L286.785 225.64L286.499 225.353H251.49L171.484 305.433H207.066Z" fill="#5CFC4E"/>
<path d="M277.836 305.433L357.555 225.64L357.269 225.353H322.242L242.236 305.433H277.836Z" fill="#5CFC4E"/>
<path d="M348.588 305.433L428.325 225.64L428.038 225.353H393.011L313.006 305.433H348.588Z" fill="#5CFC4E"/>
<path d="M419.357 305.433L499.076 225.64L498.808 225.353H463.781L383.775 305.433H419.357Z" fill="#5CFC4E"/>
<path d="M454.546 305.433H490.128L513.395 282.161V246.546L454.546 305.433Z" fill="#5CFC4E"/>
<g style="mix-blend-mode:multiply">
<path d="M502.942 227.521L502.709 263.888C502.709 281.463 501.903 297.371 470.904 295.723H159.903C159.117 295.722 158.335 295.62 157.576 295.418C157.953 297.713 159.132 299.798 160.902 301.304C162.672 302.81 164.918 303.638 167.241 303.641H500.275C501.566 303.646 502.846 303.395 504.041 302.902C505.235 302.41 506.32 301.685 507.233 300.771C508.147 299.857 508.87 298.771 509.363 297.575C509.855 296.38 510.106 295.099 510.101 293.806V236.944C510.1 234.806 509.4 232.727 508.107 231.025C506.814 229.323 505 228.092 502.942 227.521V227.521Z" fill="#CDD4DE"/>
</g>
<path d="M423.994 117.042L337.819 30.7871C335.583 28.5483 331.956 28.5483 329.72 30.7871L243.545 117.042C241.308 119.281 241.308 122.911 243.545 125.15L329.72 211.405C331.956 213.644 335.583 213.644 337.819 211.405L423.994 125.15C426.231 122.911 426.231 119.281 423.994 117.042Z" fill="url(#paint4_linear_701_1692)"/>
<path d="M333.767 200.845C332.794 200.847 331.829 200.657 330.929 200.285C330.029 199.913 329.212 199.367 328.523 198.678L256.25 126.337C254.863 124.946 254.084 123.061 254.084 121.097C254.084 119.132 254.863 117.247 256.25 115.856L328.523 43.5156C329.915 42.1317 331.797 41.355 333.759 41.355C335.72 41.355 337.602 42.1317 338.994 43.5156L411.267 115.856C412.654 117.247 413.433 119.132 413.433 121.097C413.433 123.061 412.654 124.946 411.267 126.337L338.994 198.678C338.308 199.365 337.493 199.911 336.597 200.283C335.7 200.655 334.738 200.846 333.767 200.845ZM258.559 118.239C258.174 118.623 257.869 119.08 257.661 119.583C257.452 120.085 257.345 120.624 257.345 121.168C257.345 121.712 257.452 122.251 257.661 122.754C257.869 123.256 258.174 123.713 258.559 124.097L330.832 196.438C331.61 197.212 332.662 197.646 333.759 197.646C334.855 197.646 335.907 197.212 336.685 196.438L408.958 124.097C409.343 123.713 409.648 123.256 409.856 122.754C410.065 122.251 410.172 121.712 410.172 121.168C410.172 120.624 410.065 120.085 409.856 119.583C409.648 119.08 409.343 118.623 408.958 118.239L336.685 45.8266C335.907 45.0532 334.855 44.6191 333.759 44.6191C332.662 44.6191 331.61 45.0532 330.832 45.8266L258.559 118.239Z" fill="#FFEDAD"/>
<path d="M354.225 125.889C352.918 125.889 351.916 126.211 350.932 126.211L341.374 116.645L349.285 108.726L359.505 105.143L367.094 92.9433C367.255 92.6368 367.34 92.2955 367.34 91.949C367.34 91.6025 367.255 91.2613 367.094 90.9548L363.138 86.9955C362.835 86.7075 362.449 86.5216 362.035 86.4638C361.621 86.406 361.2 86.4792 360.829 86.6731L348.301 93.8391L344.345 104.391L336.488 112.363L327.538 102.779C327.538 101.793 327.879 100.808 327.879 99.4823C327.851 97.4775 327.375 95.5044 326.485 93.7084C325.594 91.9124 324.313 90.3393 322.734 89.1049C321.156 87.8705 319.321 87.0064 317.364 86.5762C315.408 86.1461 313.38 86.1608 311.43 86.6193L316.37 91.5639C317.541 92.8006 318.183 94.4459 318.16 96.1494C318.137 97.8529 317.451 99.4802 316.247 100.685C315.043 101.89 313.418 102.577 311.716 102.6C310.014 102.623 308.37 101.98 307.134 100.808L301.872 96.1859C301.268 98.4072 301.266 100.749 301.867 102.972C302.468 105.194 303.65 107.216 305.291 108.829C306.931 110.442 308.972 111.588 311.203 112.15C313.433 112.711 315.773 112.667 317.981 112.023L327.538 121.589L323.583 125.549C322.488 125.228 321.326 125.212 320.222 125.502C319.119 125.793 318.115 126.379 317.319 127.197L303.805 140.741C302.531 141.898 301.752 143.503 301.628 145.221C301.505 146.939 302.048 148.639 303.143 149.967C303.728 150.65 304.448 151.205 305.257 151.595C306.067 151.986 306.949 152.204 307.847 152.236C308.746 152.268 309.641 152.113 310.476 151.781C311.312 151.449 312.069 150.947 312.701 150.307L326.554 136.441C327.356 135.633 327.93 134.628 328.219 133.527C328.508 132.426 328.502 131.268 328.201 130.171L332.156 126.211L341.714 135.778C341.448 136.856 341.34 137.966 341.392 139.074C341.418 141.083 341.896 143.061 342.788 144.861C343.68 146.66 344.965 148.236 346.547 149.473C348.129 150.709 349.969 151.574 351.929 152.004C353.89 152.433 355.922 152.417 357.876 151.955L352.936 147.011C352.277 146.417 351.746 145.696 351.375 144.89C351.003 144.085 350.8 143.212 350.776 142.325C350.752 141.439 350.909 140.556 351.237 139.732C351.564 138.908 352.056 138.159 352.682 137.531C353.309 136.903 354.056 136.409 354.879 136.08C355.701 135.75 356.583 135.591 357.469 135.613C358.355 135.635 359.227 135.838 360.032 136.208C360.838 136.578 361.56 137.108 362.154 137.767L367.112 142.711C367.634 140.733 367.696 138.66 367.294 136.654C366.892 134.647 366.036 132.759 364.792 131.135C363.548 129.511 361.948 128.194 360.117 127.285C358.285 126.375 356.269 125.898 354.225 125.889V125.889Z" fill="#212121"/>
<g style="mix-blend-mode:multiply" opacity="0.46">
<path d="M423.974 117.038L337.812 30.7956C336.808 29.7861 335.457 29.1968 334.035 29.1475V213.063C335.454 212.998 336.799 212.411 337.812 211.415L423.974 125.154C424.507 124.622 424.93 123.989 425.219 123.293C425.507 122.596 425.656 121.85 425.656 121.096C425.656 120.342 425.507 119.596 425.219 118.9C424.93 118.203 424.507 117.571 423.974 117.038V117.038Z" fill="#CDD4DE"/>
</g>
<path d="M263.105 121.625C263.073 121.23 263.124 120.834 263.253 120.46C263.383 120.086 263.588 119.743 263.856 119.453C264.124 119.162 264.449 118.931 264.811 118.772C265.173 118.614 265.564 118.532 265.959 118.532C266.355 118.532 266.745 118.614 267.107 118.772C267.469 118.931 267.795 119.162 268.063 119.453C268.331 119.743 268.536 120.086 268.665 120.46C268.795 120.834 268.845 121.23 268.814 121.625C268.757 122.343 268.432 123.014 267.903 123.504C267.374 123.993 266.68 124.265 265.959 124.265C265.239 124.265 264.545 123.993 264.016 123.504C263.487 123.014 263.162 122.343 263.105 121.625Z" fill="#454545"/>
<path d="M395.283 121.625C395.252 121.23 395.303 120.834 395.432 120.46C395.561 120.086 395.767 119.743 396.035 119.453C396.303 119.162 396.628 118.931 396.99 118.772C397.352 118.614 397.743 118.532 398.138 118.532C398.533 118.532 398.924 118.614 399.286 118.772C399.648 118.931 399.973 119.162 400.242 119.453C400.51 119.743 400.715 120.086 400.844 120.46C400.973 120.834 401.024 121.23 400.993 121.625C400.936 122.343 400.611 123.014 400.081 123.504C399.552 123.993 398.858 124.265 398.138 124.265C397.418 124.265 396.724 123.993 396.195 123.504C395.666 123.014 395.34 122.343 395.283 121.625Z" fill="#454545"/>
<path d="M198.761 57.1489C214.527 57.1489 227.308 44.3557 227.308 28.5744C227.308 12.7932 214.527 0 198.761 0C182.994 0 170.213 12.7932 170.213 28.5744C170.213 44.3557 182.994 57.1489 198.761 57.1489Z" fill="#FA304A"/>
<path d="M198.761 48.1554C209.565 48.1554 218.324 39.3886 218.324 28.5743C218.324 17.7599 209.565 8.99316 198.761 8.99316C187.957 8.99316 179.198 17.7599 179.198 28.5743C179.198 39.3886 187.957 48.1554 198.761 48.1554Z" fill="url(#paint5_linear_701_1692)"/>
<path d="M198.76 38.3739C204.167 38.3739 208.55 33.9865 208.55 28.5744C208.55 23.1623 204.167 18.7749 198.76 18.7749C193.353 18.7749 188.97 23.1623 188.97 28.5744C188.97 33.9865 193.353 38.3739 198.76 38.3739Z" fill="#FFEDAD"/>
<path d="M474.932 57.1489C490.698 57.1489 503.479 44.3557 503.479 28.5744C503.479 12.7932 490.698 0 474.932 0C459.165 0 446.384 12.7932 446.384 28.5744C446.384 44.3557 459.165 57.1489 474.932 57.1489Z" fill="#FA304A"/>
<path d="M474.931 48.1554C485.735 48.1554 494.494 39.3886 494.494 28.5743C494.494 17.7599 485.735 8.99316 474.931 8.99316C464.127 8.99316 455.368 17.7599 455.368 28.5743C455.368 39.3886 464.127 48.1554 474.931 48.1554Z" fill="url(#paint6_linear_701_1692)"/>
<path d="M474.931 38.3739C480.338 38.3739 484.721 33.9865 484.721 28.5744C484.721 23.1623 480.338 18.7749 474.931 18.7749C469.524 18.7749 465.141 23.1623 465.141 28.5744C465.141 33.9865 469.524 38.3739 474.931 38.3739Z" fill="#FFEDAD"/>
<path opacity="0.28" d="M198.528 54.2465C212.367 54.2465 223.586 43.0173 223.586 29.1655C223.586 15.3136 212.367 4.08447 198.528 4.08447C184.689 4.08447 173.471 15.3136 173.471 29.1655C173.471 43.0173 184.689 54.2465 198.528 54.2465Z" fill="url(#paint7_linear_701_1692)"/>
<path opacity="0.28" d="M474.752 53.6552C488.591 53.6552 499.81 42.426 499.81 28.5742C499.81 14.7223 488.591 3.49316 474.752 3.49316C460.913 3.49316 449.694 14.7223 449.694 28.5742C449.694 42.426 460.913 53.6552 474.752 53.6552Z" fill="url(#paint8_linear_701_1692)"/>
<path d="M341.731 513.265C413.822 513.265 472.264 495.539 472.264 473.673C472.264 451.807 413.822 434.081 341.731 434.081C269.64 434.081 211.199 451.807 211.199 473.673C211.199 495.539 269.64 513.265 341.731 513.265Z" fill="#545454"/>
<path d="M341.732 513.265C404.68 513.265 455.708 504.177 455.708 492.967C455.708 481.757 404.68 472.669 341.732 472.669C278.785 472.669 227.756 481.757 227.756 492.967C227.756 504.177 278.785 513.265 341.732 513.265Z" fill="#212121"/>
<path d="M286.015 449.237V459.144H385.726V449.237H286.015Z" fill="url(#paint9_linear_701_1692)"/>
<path d="M286.015 407.441V417.348H385.726V407.441H286.015Z" fill="url(#paint10_linear_701_1692)"/>
<path d="M286.033 490.477V500.384H385.745V490.477H286.033Z" fill="url(#paint11_linear_701_1692)"/>
<path d="M292.941 510.417L283.062 509.073V379.798C283.062 378.815 283.452 377.871 284.147 377.176C284.841 376.481 285.784 376.09 286.766 376.09H289.236C290.219 376.09 291.161 376.481 291.856 377.176C292.551 377.871 292.941 378.815 292.941 379.798V510.417Z" fill="url(#paint12_linear_701_1692)"/>
<path d="M390.523 510.578L380.625 511.474V379.798C380.63 378.813 381.024 377.87 381.722 377.175C382.419 376.48 383.364 376.09 384.348 376.09H386.818C387.8 376.09 388.743 376.481 389.438 377.176C390.132 377.871 390.523 378.815 390.523 379.798V510.578Z" fill="url(#paint13_linear_701_1692)"/>
<path d="M256.375 460.416C263.319 471.165 262.478 487.091 254.048 502.946C255.229 503.25 256.321 503.573 257.484 503.895C266.201 487.109 266.953 470.215 259.382 458.463C254.513 450.903 246.728 445.922 239.21 441.247C230.691 435.872 222.636 430.766 218.842 422.275C216.665 416.885 216.504 410.89 218.388 405.391C220.272 399.892 224.075 395.257 229.098 392.339C229.306 392.221 229.489 392.064 229.636 391.875C229.783 391.687 229.892 391.471 229.956 391.241C230.02 391.01 230.038 390.77 230.009 390.532C229.98 390.295 229.904 390.066 229.787 389.857C229.669 389.649 229.512 389.466 229.324 389.319C229.136 389.172 228.92 389.063 228.69 388.999C228.225 388.869 227.728 388.93 227.308 389.168C221.468 392.487 217.042 397.829 214.863 404.187C212.684 410.545 212.903 417.482 215.477 423.69C219.719 433.185 228.615 438.81 237.206 444.238C244.49 448.86 251.936 453.554 256.375 460.416Z" fill="#FA304A"/>
<path d="M237.421 497.535C238.549 497.894 239.694 498.36 240.804 498.772C240.814 498.664 240.814 498.556 240.804 498.449C241.965 492.9 241.526 487.134 239.539 481.825C237.552 476.515 234.099 471.88 229.582 468.459C223.013 463.712 214.977 462.1 207.209 460.541L205.204 460.147C197.078 458.499 188.827 456.188 183.511 450.509C182.015 448.867 180.865 446.941 180.13 444.845C179.395 442.749 179.09 440.525 179.234 438.308C179.299 436.849 179.67 435.42 180.324 434.114C180.978 432.809 181.899 431.656 183.028 430.73C183.403 430.438 183.647 430.009 183.706 429.537C183.764 429.065 183.633 428.589 183.341 428.213C183.05 427.838 182.621 427.594 182.149 427.535C181.677 427.476 181.202 427.608 180.827 427.9C179.309 429.133 178.066 430.671 177.178 432.414C176.29 434.158 175.777 436.068 175.672 438.022C175.497 440.736 175.869 443.457 176.767 446.024C177.665 448.591 179.07 450.951 180.898 452.963C186.894 459.376 195.772 461.92 204.488 463.712L206.511 464.124C213.903 465.593 221.545 467.116 227.488 471.415C231.427 474.396 234.448 478.427 236.205 483.046C237.962 487.666 238.383 492.687 237.421 497.535Z" fill="#FFD22E"/>
<g style="mix-blend-mode:multiply">
<path d="M258.667 492.018C257.463 495.805 255.917 499.475 254.049 502.982C255.23 503.286 256.322 503.609 257.485 503.931C258.854 501.301 260.05 498.584 261.065 495.798C260.295 494.454 259.526 493.272 258.667 492.018Z" fill="#969696"/>
</g>
<g style="mix-blend-mode:multiply">
<path d="M237.564 487.897C238.116 491.091 238.068 494.36 237.421 497.536C238.548 497.894 239.694 498.36 240.804 498.772C240.813 498.665 240.813 498.557 240.804 498.449C241.378 495.803 241.571 493.089 241.376 490.388C240.141 489.564 238.835 488.739 237.564 487.897Z" fill="#969696"/>
</g>
<g style="mix-blend-mode:multiply" opacity="0.35">
<path d="M548.797 555.079C622.815 555.079 682.819 536.928 682.819 514.537C682.819 492.147 622.815 473.996 548.797 473.996C474.778 473.996 414.774 492.147 414.774 514.537C414.774 536.928 474.778 555.079 548.797 555.079Z" fill="#969696"/>
</g>
<path d="M674.55 503.017C674.55 524.892 616.095 542.61 544 542.61C471.906 542.61 413.45 524.91 413.45 503.017C413.45 499.166 413.45 491.946 416.887 488.417C432.691 471.953 484.578 463.425 543.965 463.425C602.08 463.425 656.867 474.264 673.781 490.19C677.88 494.006 674.55 498.772 674.55 503.017Z" fill="#636363"/>
<path d="M545.325 533.366C617.416 533.366 675.857 515.64 675.857 493.774C675.857 471.908 617.416 454.182 545.325 454.182C473.234 454.182 414.793 471.908 414.793 493.774C414.793 515.64 473.234 533.366 545.325 533.366Z" fill="#DBDBDB"/>
<mask id="mask2_701_1692" style="mask-type:alpha" maskUnits="userSpaceOnUse" x="414" y="454" width="262" height="80">
<path d="M545.325 533.365C617.416 533.365 675.857 515.639 675.857 493.773C675.857 471.907 617.416 454.181 545.325 454.181C473.234 454.181 414.793 471.907 414.793 493.773C414.793 515.639 473.234 533.365 545.325 533.365Z" fill="#DBDBDB"/>
</mask>
<g mask="url(#mask2_701_1692)">
<path d="M711.135 495.206L704.244 498.001L525.602 425.535L532.492 422.722L711.135 495.206Z" fill="#808080"/>
<path d="M700.807 486.822L707.698 489.617L543.983 556.028L537.092 553.233L700.807 486.822Z" fill="#808080"/>
<path d="M680.135 507.783L687.026 504.988L654.29 491.713L683.589 479.818L676.699 477.023L647.399 488.918L630.145 481.914L659.445 470.036L652.554 467.241L623.254 479.119L606.018 472.132L635.389 460.254L628.498 457.46L599.127 469.373L581.891 462.386L611.191 450.491L604.3 447.696L575.001 459.592L557.764 452.587L587.064 440.709L580.173 437.914L550.874 449.792L508.311 432.522L501.474 435.335L543.983 452.569L526.747 459.574L484.238 442.321L477.347 445.116L519.856 462.368L502.62 469.355L460.129 452.103L453.221 454.916L495.783 472.132L478.565 479.119L436.056 461.885L429.165 464.679L471.602 481.914L454.384 488.918L411.875 471.666L404.985 474.461L447.457 491.713L430.239 498.7L387.731 481.448L380.84 484.261L423.348 501.495L416.44 504.289L423.348 507.084L430.239 504.289L447.457 511.294L440.584 514.161L447.475 516.955L454.384 514.161L471.602 521.148L464.711 523.942L471.602 526.737L478.511 523.942L495.729 530.929L488.838 533.724L495.729 536.519L502.62 533.724L519.856 540.729L512.965 543.523L519.856 546.318L526.747 543.523L559.501 556.798L566.391 554.004L533.638 540.729L550.874 533.724L583.627 547.017L590.518 544.222L557.764 530.929L575.001 523.942L607.754 537.217L614.645 534.423L581.891 521.148L599.127 514.161L631.81 527.364L638.718 524.569L605.965 511.294L623.201 504.289L655.937 517.582L662.827 514.788L630.091 501.495L647.328 494.508L680.135 507.783ZM616.363 481.914L599.127 488.918L581.891 481.914L599.127 474.927L616.363 481.914ZM543.983 491.713L526.747 498.7L509.529 491.713L526.747 484.726L543.983 491.713ZM533.638 481.914L550.874 474.927L568.11 481.914L550.874 488.918L533.638 481.914ZM519.856 501.495L502.62 508.482L485.402 501.495L502.62 494.508L519.856 501.495ZM526.747 504.289L543.983 511.294L526.747 518.281L509.529 511.294L526.747 504.289ZM533.638 501.495L550.874 494.508L568.11 501.495L550.874 508.482L533.638 501.495ZM557.764 491.713L575.001 484.726L592.237 491.713L575.001 498.7L557.764 491.713ZM592.237 472.132L575.001 479.119L557.764 472.132L575.001 465.145L592.237 472.132ZM550.874 455.364L568.11 462.35L550.874 469.337L533.638 462.35L550.874 455.364ZM526.747 465.145L543.983 472.132L526.747 479.119L509.529 472.132L526.747 465.145ZM502.62 474.927L519.856 481.914L502.62 488.918L485.402 481.914L502.62 474.927ZM478.511 484.726L495.729 491.713L478.511 498.7L461.275 491.713L478.511 484.726ZM437.148 501.495L454.384 494.508L471.602 501.495L454.384 508.482L437.148 501.495ZM461.275 511.294L478.511 504.289L495.783 511.294L478.565 518.281L461.275 511.294ZM485.402 521.076L502.62 514.089L519.856 521.076L502.62 528.063L485.402 521.076ZM526.747 537.844L509.529 530.857L526.747 523.871L543.983 530.857L526.747 537.844ZM550.874 528.063L533.638 521.076L550.874 514.089L568.11 521.076L550.874 528.063ZM575.001 518.281L557.764 511.294L575.001 504.289L592.237 511.294L575.001 518.281ZM599.127 508.482L581.891 501.495L599.127 494.508L616.363 501.495L599.127 508.482ZM623.254 498.7L606.018 491.713L623.254 484.726L640.49 491.713L623.254 498.7Z" fill="#9E9E9E"/>
<path d="M556.046 428.097L562.937 430.891L399.239 497.302L392.349 494.508L556.046 428.097Z" fill="#808080"/>
</g>
<path d="M546.148 525.787C479.513 525.787 427.304 511.294 427.304 492.788C427.304 474.282 479.513 459.789 546.148 459.789C612.784 459.789 664.975 474.282 664.975 492.788C664.975 511.294 612.784 525.787 546.148 525.787ZM546.148 463.336C477.455 463.336 431.313 478.564 431.313 492.788C431.313 507.013 477.455 522.24 546.148 522.24C614.842 522.24 660.984 507.013 660.984 492.788C660.984 478.564 614.842 463.336 546.148 463.336Z" fill="#9E9E9E"/>
<g style="mix-blend-mode:multiply">
<path d="M640.293 466.597C644.409 470.448 646.665 474.569 646.665 478.833C646.665 500.707 588.227 518.425 516.132 518.425C478.725 518.425 445.005 513.641 421.271 505.992C438.257 521.882 487.495 533.366 545.414 533.366C617.508 533.366 675.964 515.63 675.964 493.756C675.911 483.24 662.361 473.691 640.293 466.597Z" fill="#CDD4DE"/>
</g>
</g>
<defs>
<linearGradient id="paint0_linear_701_1692" x1="96.2567" y1="268.779" x2="96.2567" y2="410.308" gradientUnits="userSpaceOnUse">
<stop offset="0.01" stop-color="#FA304A"/>
<stop offset="1" stop-color="#B32235"/>
</linearGradient>
<linearGradient id="paint1_linear_701_1692" x1="575.628" y1="268.779" x2="575.628" y2="410.308" gradientUnits="userSpaceOnUse">
<stop offset="0.01" stop-color="#FA304A"/>
<stop offset="1" stop-color="#B32235"/>
</linearGradient>
<linearGradient id="paint2_linear_701_1692" x1="333.769" y1="91.5097" x2="333.769" y2="156.04" gradientUnits="userSpaceOnUse">
<stop stop-color="white"/>
<stop offset="1" stop-color="#E0E0E0"/>
</linearGradient>
<linearGradient id="paint3_linear_701_1692" x1="333.769" y1="235.815" x2="333.769" y2="300.327" gradientUnits="userSpaceOnUse">
<stop stop-color="white"/>
<stop offset="1" stop-color="#E0E0E0"/>
</linearGradient>
<linearGradient id="paint4_linear_701_1692" x1="333.773" y1="45.7413" x2="333.773" y2="171.505" gradientUnits="userSpaceOnUse">
<stop stop-color="#FFD22E"/>
<stop offset="0.36" stop-color="#FFC82E"/>
<stop offset="0.96" stop-color="#FFAD2E"/>
<stop offset="1" stop-color="#FFAB2E"/>
</linearGradient>
<linearGradient id="paint5_linear_701_1692" x1="198.761" y1="8.11533" x2="198.761" y2="51.1113" gradientUnits="userSpaceOnUse">
<stop stop-color="#FFD22E"/>
<stop offset="0.36" stop-color="#FFC82E"/>
<stop offset="0.96" stop-color="#FFAD2E"/>
<stop offset="1" stop-color="#FFAB2E"/>
</linearGradient>
<linearGradient id="paint6_linear_701_1692" x1="474.931" y1="8.11533" x2="474.931" y2="51.1113" gradientUnits="userSpaceOnUse">
<stop stop-color="#FFD22E"/>
<stop offset="0.36" stop-color="#FFC82E"/>
<stop offset="0.96" stop-color="#FFAD2E"/>
<stop offset="1" stop-color="#FFAB2E"/>
</linearGradient>
<linearGradient id="paint7_linear_701_1692" x1="198.528" y1="9.45898" x2="198.528" y2="53.082" gradientUnits="userSpaceOnUse">
<stop stop-color="white"/>
<stop offset="1" stop-color="white" stop-opacity="0"/>
</linearGradient>
<linearGradient id="paint8_linear_701_1692" x1="474.752" y1="8.86767" x2="474.752" y2="52.4907" gradientUnits="userSpaceOnUse">
<stop stop-color="white"/>
<stop offset="1" stop-color="white" stop-opacity="0"/>
</linearGradient>
<linearGradient id="paint9_linear_701_1692" x1="335.879" y1="393.879" x2="335.879" y2="571.327" gradientUnits="userSpaceOnUse">
<stop stop-color="#D6D6D6"/>
<stop offset="0.28" stop-color="#D4D4D4"/>
<stop offset="0.44" stop-color="#CCCCCC"/>
<stop offset="0.56" stop-color="#BEBEBE"/>
<stop offset="0.67" stop-color="#ABABAB"/>
<stop offset="0.76" stop-color="#919191"/>
<stop offset="0.85" stop-color="#727272"/>
<stop offset="0.93" stop-color="#4E4E4E"/>
<stop offset="0.98" stop-color="#363636"/>
</linearGradient>
<linearGradient id="paint10_linear_701_1692" x1="335.879" y1="397.462" x2="335.879" y2="574.911" gradientUnits="userSpaceOnUse">
<stop stop-color="#D6D6D6"/>
<stop offset="0.28" stop-color="#D4D4D4"/>
<stop offset="0.44" stop-color="#CCCCCC"/>
<stop offset="0.56" stop-color="#BEBEBE"/>
<stop offset="0.67" stop-color="#ABABAB"/>
<stop offset="0.76" stop-color="#919191"/>
<stop offset="0.85" stop-color="#727272"/>
<stop offset="0.93" stop-color="#4E4E4E"/>
<stop offset="0.98" stop-color="#363636"/>
</linearGradient>
<linearGradient id="paint11_linear_701_1692" x1="335.88" y1="371.199" x2="335.88" y2="548.629" gradientUnits="userSpaceOnUse">
<stop stop-color="#D6D6D6"/>
<stop offset="0.28" stop-color="#D4D4D4"/>
<stop offset="0.44" stop-color="#CCCCCC"/>
<stop offset="0.56" stop-color="#BEBEBE"/>
<stop offset="0.67" stop-color="#ABABAB"/>
<stop offset="0.76" stop-color="#919191"/>
<stop offset="0.85" stop-color="#727272"/>
<stop offset="0.93" stop-color="#4E4E4E"/>
<stop offset="0.98" stop-color="#363636"/>
</linearGradient>
<linearGradient id="paint12_linear_701_1692" x1="288.001" y1="455.292" x2="288.001" y2="532.936" gradientUnits="userSpaceOnUse">
<stop stop-color="white"/>
<stop offset="0.98" stop-color="#363636"/>
</linearGradient>
<linearGradient id="paint13_linear_701_1692" x1="385.583" y1="455.955" x2="385.583" y2="534.244" gradientUnits="userSpaceOnUse">
<stop stop-color="white"/>
<stop offset="0.98" stop-color="#363636"/>
</linearGradient>
</defs>
</svg>
