<svg width="860" height="212" viewBox="0 0 860 212" fill="none" xmlns="http://www.w3.org/2000/svg">
<g style="mix-blend-mode:exclusion">
<path d="M245.36 72.64C243.027 72.64 241.067 71.8467 239.48 70.26C237.893 68.6733 237.1 66.7133 237.1 64.38C237.1 62.0467 237.893 60.0867 239.48 58.5C241.067 56.9133 243.027 56.12 245.36 56.12C247.787 56.12 249.793 56.9133 251.38 58.5C253.06 60.0867 253.9 62.0467 253.9 64.38C253.9 66.7133 253.06 68.6733 251.38 70.26C249.793 71.8467 247.787 72.64 245.36 72.64ZM238.22 85.8H252.64V153H238.22V85.8ZM272.1 85.8H285.54V95.46C288.713 91.54 292.307 88.6 296.32 86.64C300.333 84.68 304.487 83.7 308.78 83.7C314.193 83.7 318.487 84.6333 321.66 86.5C324.833 88.2733 327.167 91.0267 328.66 94.76C331.647 91.12 335.287 88.3667 339.58 86.5C343.967 84.6333 348.353 83.7 352.74 83.7C360.953 83.7 366.88 85.8 370.52 90C374.16 94.1067 375.98 100.22 375.98 108.34V153H362.26V110.16C362.26 104.653 361.233 100.78 359.18 98.54C357.127 96.2067 353.627 95.04 348.68 95.04C341.587 95.04 335.8 98.12 331.32 104.28C331.507 105.68 331.6 107.967 331.6 111.14V153H317.88V110.16C317.88 104.653 316.947 100.78 315.08 98.54C313.213 96.2067 309.853 95.04 305 95.04C297.907 95.04 291.56 99.0533 285.96 107.08V153H272.1V85.8ZM415.535 155.1C407.415 155.1 400.882 153.047 395.935 148.94C391.082 144.74 388.655 139.093 388.655 132C388.655 124.533 390.989 118.793 395.655 114.78C400.415 110.673 407.135 108.62 415.815 108.62C425.055 108.62 432.895 110.487 439.335 114.22V110.72C439.335 105.4 437.702 101.48 434.435 98.96C431.262 96.3467 426.222 95.04 419.315 95.04C415.209 95.04 411.195 95.46 407.275 96.3C403.449 97.0467 399.995 98.12 396.915 99.52V88.04C399.715 86.7333 403.355 85.7067 407.835 84.96C412.315 84.12 416.655 83.7 420.855 83.7C431.962 83.7 440.175 86.1733 445.495 91.12C450.909 95.9733 453.615 102.74 453.615 111.42V153H440.315V145.44C437.422 148.613 433.969 151.04 429.955 152.72C426.035 154.307 421.229 155.1 415.535 155.1ZM419.035 144.32C423.515 144.32 427.575 143.433 431.215 141.66C434.855 139.887 437.562 137.413 439.335 134.24V125.14C433.269 121.22 426.502 119.26 419.035 119.26C413.622 119.26 409.562 120.333 406.855 122.48C404.242 124.533 402.935 127.707 402.935 132C402.935 140.213 408.302 144.32 419.035 144.32ZM506.303 185.2C501.729 185.2 497.249 184.827 492.863 184.08C488.569 183.333 484.929 182.26 481.943 180.86V169.24C488.943 172.413 497.063 174 506.303 174C514.983 174 521.283 172.087 525.203 168.26C529.216 164.527 531.223 158.833 531.223 151.18V144.04C525.063 151.413 516.009 155.1 504.063 155.1C497.249 155.1 491.136 153.607 485.723 150.62C480.309 147.633 476.063 143.433 472.983 138.02C469.903 132.607 468.363 126.4 468.363 119.4C468.363 112.307 469.856 106.1 472.843 100.78C475.923 95.3667 480.123 91.1667 485.443 88.18C490.856 85.1933 496.923 83.7 503.643 83.7C509.896 83.7 515.169 84.6333 519.463 86.5C523.849 88.2733 527.909 91.26 531.643 95.46V85.8H545.363V149.64C545.363 161.12 542.143 169.893 535.703 175.96C529.356 182.12 519.556 185.2 506.303 185.2ZM506.863 143.9C512.649 143.9 517.736 142.36 522.123 139.28C526.603 136.2 529.636 132.093 531.223 126.96V111.84C529.449 106.613 526.369 102.507 521.983 99.52C517.689 96.5333 512.649 95.04 506.863 95.04C502.289 95.04 498.136 96.0667 494.403 98.12C490.763 100.08 487.869 102.927 485.723 106.66C483.669 110.393 482.642 114.64 482.642 119.4C482.642 124.253 483.669 128.547 485.723 132.28C487.869 135.92 490.763 138.767 494.403 140.82C498.136 142.873 502.289 143.9 506.863 143.9ZM600.544 155.1C588.131 155.1 578.378 152.02 571.284 145.86C564.284 139.607 560.784 130.833 560.784 119.54C560.784 108.527 563.911 99.8 570.164 93.36C576.511 86.92 585.518 83.7 597.184 83.7C604.931 83.7 611.511 85.1933 616.924 88.18C622.338 91.0733 626.398 95.1333 629.104 100.36C631.904 105.493 633.304 111.373 633.304 118V125H574.224C574.691 131.347 577.351 136.107 582.204 139.28C587.151 142.36 593.824 143.9 602.224 143.9C606.518 143.9 610.858 143.527 615.244 142.78C619.631 141.94 623.504 140.867 626.864 139.56V150.9C623.878 152.113 619.911 153.093 614.964 153.84C610.111 154.68 605.304 155.1 600.544 155.1ZM620.004 115.06C619.818 108.713 617.718 103.813 613.704 100.36C609.784 96.8133 604.184 95.04 596.904 95.04C589.811 95.04 584.304 96.86 580.384 100.5C576.464 104.14 574.411 108.993 574.224 115.06H620.004Z" fill="#232323"/>
</g>
<mask id="mask0_0_1" style="mask-type:alpha" maskUnits="userSpaceOnUse" x="237" y="56" width="397" height="130">
<path d="M245.36 72.64C243.027 72.64 241.067 71.8467 239.48 70.26C237.893 68.6733 237.1 66.7133 237.1 64.38C237.1 62.0467 237.893 60.0867 239.48 58.5C241.067 56.9133 243.027 56.12 245.36 56.12C247.787 56.12 249.793 56.9133 251.38 58.5C253.06 60.0867 253.9 62.0467 253.9 64.38C253.9 66.7133 253.06 68.6733 251.38 70.26C249.793 71.8467 247.787 72.64 245.36 72.64ZM238.22 85.8H252.64V153H238.22V85.8ZM272.1 85.8H285.54V95.46C288.713 91.54 292.307 88.6 296.32 86.64C300.333 84.68 304.487 83.7 308.78 83.7C314.193 83.7 318.487 84.6333 321.66 86.5C324.833 88.2733 327.167 91.0267 328.66 94.76C331.647 91.12 335.287 88.3667 339.58 86.5C343.967 84.6333 348.353 83.7 352.74 83.7C360.953 83.7 366.88 85.8 370.52 90C374.16 94.1067 375.98 100.22 375.98 108.34V153H362.26V110.16C362.26 104.653 361.233 100.78 359.18 98.54C357.127 96.2067 353.627 95.04 348.68 95.04C341.587 95.04 335.8 98.12 331.32 104.28C331.507 105.68 331.6 107.967 331.6 111.14V153H317.88V110.16C317.88 104.653 316.947 100.78 315.08 98.54C313.213 96.2067 309.853 95.04 305 95.04C297.907 95.04 291.56 99.0533 285.96 107.08V153H272.1V85.8ZM415.535 155.1C407.415 155.1 400.882 153.047 395.935 148.94C391.082 144.74 388.655 139.093 388.655 132C388.655 124.533 390.989 118.793 395.655 114.78C400.415 110.673 407.135 108.62 415.815 108.62C425.055 108.62 432.895 110.487 439.335 114.22V110.72C439.335 105.4 437.702 101.48 434.435 98.96C431.262 96.3467 426.222 95.04 419.315 95.04C415.209 95.04 411.195 95.46 407.275 96.3C403.449 97.0467 399.995 98.12 396.915 99.52V88.04C399.715 86.7333 403.355 85.7067 407.835 84.96C412.315 84.12 416.655 83.7 420.855 83.7C431.962 83.7 440.175 86.1733 445.495 91.12C450.909 95.9733 453.615 102.74 453.615 111.42V153H440.315V145.44C437.422 148.613 433.969 151.04 429.955 152.72C426.035 154.307 421.229 155.1 415.535 155.1ZM419.035 144.32C423.515 144.32 427.575 143.433 431.215 141.66C434.855 139.887 437.562 137.413 439.335 134.24V125.14C433.269 121.22 426.502 119.26 419.035 119.26C413.622 119.26 409.562 120.333 406.855 122.48C404.242 124.533 402.935 127.707 402.935 132C402.935 140.213 408.302 144.32 419.035 144.32ZM506.303 185.2C501.729 185.2 497.249 184.827 492.863 184.08C488.569 183.333 484.929 182.26 481.943 180.86V169.24C488.943 172.413 497.063 174 506.303 174C514.983 174 521.283 172.087 525.203 168.26C529.216 164.527 531.223 158.833 531.223 151.18V144.04C525.063 151.413 516.009 155.1 504.063 155.1C497.249 155.1 491.136 153.607 485.723 150.62C480.309 147.633 476.063 143.433 472.983 138.02C469.903 132.607 468.363 126.4 468.363 119.4C468.363 112.307 469.856 106.1 472.843 100.78C475.923 95.3667 480.123 91.1667 485.443 88.18C490.856 85.1933 496.923 83.7 503.643 83.7C509.896 83.7 515.169 84.6333 519.463 86.5C523.849 88.2733 527.909 91.26 531.643 95.46V85.8H545.363V149.64C545.363 161.12 542.143 169.893 535.703 175.96C529.356 182.12 519.556 185.2 506.303 185.2ZM506.863 143.9C512.649 143.9 517.736 142.36 522.123 139.28C526.603 136.2 529.636 132.093 531.223 126.96V111.84C529.449 106.613 526.369 102.507 521.983 99.52C517.689 96.5333 512.649 95.04 506.863 95.04C502.289 95.04 498.136 96.0667 494.403 98.12C490.763 100.08 487.869 102.927 485.723 106.66C483.669 110.393 482.642 114.64 482.642 119.4C482.642 124.253 483.669 128.547 485.723 132.28C487.869 135.92 490.763 138.767 494.403 140.82C498.136 142.873 502.289 143.9 506.863 143.9ZM600.544 155.1C588.131 155.1 578.378 152.02 571.284 145.86C564.284 139.607 560.784 130.833 560.784 119.54C560.784 108.527 563.911 99.8 570.164 93.36C576.511 86.92 585.518 83.7 597.184 83.7C604.931 83.7 611.511 85.1933 616.924 88.18C622.338 91.0733 626.398 95.1333 629.104 100.36C631.904 105.493 633.304 111.373 633.304 118V125H574.224C574.691 131.347 577.351 136.107 582.204 139.28C587.151 142.36 593.824 143.9 602.224 143.9C606.518 143.9 610.858 143.527 615.244 142.78C619.631 141.94 623.504 140.867 626.864 139.56V150.9C623.878 152.113 619.911 153.093 614.964 153.84C610.111 154.68 605.304 155.1 600.544 155.1ZM620.004 115.06C619.818 108.713 617.718 103.813 613.704 100.36C609.784 96.8133 604.184 95.04 596.904 95.04C589.811 95.04 584.304 96.86 580.384 100.5C576.464 104.14 574.411 108.993 574.224 115.06H620.004Z" fill="#414141"/>
</mask>
<g mask="url(#mask0_0_1)">
<circle cx="239.5" cy="60.5" r="22.5" fill="#5CFC4E"/>
</g>
<path d="M642.925 106.565H649.815L659.955 141.08L669.965 106.565H675.165L685.11 141.08L695.25 106.565H702.14L688.88 152H682.575L672.5 117.68L662.49 152H656.185L642.925 106.565ZM719.268 106.565H725.638L743.773 152H737.013L732.463 140.69H712.378L707.958 152H701.133L719.268 106.565ZM730.643 135.165L722.453 113.91L714.263 135.165H730.643ZM740.869 106.565H747.889L762.189 142.965L776.489 106.565H783.509L765.374 152H759.004L740.869 106.565ZM790.665 106.565H820.63V112.155H797.295V126.52H814.715V132.045H797.295V146.475H820.63V152H790.665V106.565ZM840.092 152.975C837.492 152.975 834.914 152.737 832.357 152.26C829.844 151.827 827.785 151.22 826.182 150.44V144.46C830.342 146.41 834.827 147.385 839.637 147.385C846.397 147.385 849.777 145.11 849.777 140.56C849.777 139 849.409 137.743 848.672 136.79C847.935 135.837 846.874 135.013 845.487 134.32C844.1 133.583 841.847 132.587 838.727 131.33C834.437 129.597 831.339 127.69 829.432 125.61C827.525 123.53 826.572 120.908 826.572 117.745C826.572 115.362 827.222 113.26 828.522 111.44C829.822 109.577 831.642 108.147 833.982 107.15C836.322 106.11 839.009 105.59 842.042 105.59C844.512 105.59 846.744 105.785 848.737 106.175C850.73 106.565 852.68 107.193 854.587 108.06V113.78C850.817 112.09 847.004 111.245 843.147 111.245C840.027 111.245 837.644 111.808 835.997 112.935C834.35 114.062 833.527 115.665 833.527 117.745C833.527 119.175 833.874 120.388 834.567 121.385C835.304 122.338 836.365 123.205 837.752 123.985C839.182 124.722 841.284 125.653 844.057 126.78C847.134 128.037 849.56 129.228 851.337 130.355C853.114 131.482 854.457 132.868 855.367 134.515C856.32 136.118 856.797 138.133 856.797 140.56C856.797 144.503 855.389 147.558 852.572 149.725C849.755 151.892 845.595 152.975 840.092 152.975Z" fill="#0F3A5F"/>
<mask id="mask1_0_1" style="mask-type:alpha" maskUnits="userSpaceOnUse" x="0" y="4" width="195" height="195">
<circle cx="97.5" cy="101.5" r="97.5" fill="#D9D9D9"/>
</mask>
<g mask="url(#mask1_0_1)">
<path d="M68.5098 8.3824C49.2638 14.3678 32.5741 26.1555 20.4868 41.6995C23.705 38.8781 26.9757 36.2885 30.2655 34.026C38.2064 28.5649 47.048 24.4606 56.0059 24.4606C65.7512 24.4606 73.2674 26.8143 79.5425 30.5137C85.366 33.9469 89.9001 38.4424 93.7303 42.24L94.1628 42.6687C98.2714 46.7386 101.704 50.0476 105.981 52.4903C110.062 54.8205 115.201 56.5028 122.679 56.5028C129.099 56.5028 136 53.5437 143.35 47.9192C149.933 42.8816 156.337 36.1174 162.407 28.7432C160.466 27.0108 158.456 25.3548 156.381 23.7801C155.522 24.488 154.656 25.1776 153.781 25.8468C144.921 32.6272 134.388 37.9639 122.679 37.9639C112.319 37.9639 104.231 35.5536 97.4688 31.6921C91.011 28.0044 86.1234 23.1626 82.1802 19.2563L82.0823 19.1593C77.8832 14.9997 74.7124 11.8883 70.8247 9.59634C70.0942 9.16565 69.3262 8.75823 68.5098 8.3824Z" fill="#0F3A5F"/>
<path d="M138.608 13.0642C132.815 16.8739 127.51 18.7386 122.679 18.7386C115.546 18.7386 110.761 17.1436 107.002 14.9971C102.993 12.7075 99.7388 9.5885 95.6123 5.50088L95.1404 5.03303C94.8181 4.71341 94.4894 4.38744 94.1541 4.05634C95.2648 4.01888 96.3802 4 97.5 4C112.188 4 126.117 7.24771 138.608 13.0642Z" fill="#0F3A5F"/>
<path d="M152.53 59.9153C159.921 54.2591 166.774 47.0744 172.93 39.7169C174.242 41.3173 175.505 42.9603 176.715 44.6434C174.934 47.0169 173.093 49.4096 171.194 51.784C164.471 60.1895 157.183 68.1536 149.556 73.9908C141.904 79.8465 134.276 83.2811 126.799 83.2811C118.744 83.2811 113.015 81.4532 108.398 78.8167C103.674 76.1189 99.9452 72.4935 95.8663 68.4529L95.5121 68.102C91.6306 64.2549 87.3653 60.0274 81.9185 56.8163C76.1796 53.433 69.2668 51.2389 60.1254 51.2389C52.1786 51.2389 44.0316 54.9037 36.3304 60.2C28.56 65.5438 20.8074 72.8517 13.5581 80.8242C8.86197 85.9889 4.33362 91.4808 0.103027 96.9785C0.271033 93.298 0.643103 89.6707 1.20818 86.1076C6.36121 79.0925 12.0883 71.9154 18.0747 65.3318C24.9921 57.7243 32.0662 51.1207 38.8252 46.4724C45.7111 41.7368 51.4971 39.5662 56.0059 39.5662C63.0939 39.5662 67.9552 41.2178 71.8709 43.5263C76.0175 45.9708 79.3664 49.2738 83.5321 53.4003L83.5739 53.4417C87.5433 57.3738 92.2689 62.055 98.4904 65.6078C104.931 69.2854 112.665 71.6084 122.679 71.6084C133.753 71.6084 143.851 66.557 152.53 59.9153Z" fill="#0F3A5F"/>
<path d="M195 101.5C195 155.348 151.348 199 97.5 199C50.0382 199 10.497 165.087 1.78601 120.172C7.55545 113.187 13.9625 106.04 20.6244 99.5276C28.1428 92.1774 35.9309 85.6888 43.4457 81.1468C50.9965 76.5831 58.0504 74.1195 64.1665 74.4795C72.2069 74.9527 77.9115 77.1987 82.5116 80.2886C87.1119 83.3786 90.6723 87.3467 94.4491 91.556L94.598 91.7219C98.3822 95.9392 102.391 100.378 107.724 103.854C113.11 107.364 119.765 109.85 128.842 110.384C138.207 110.935 147.379 107.177 155.929 101.397C164.492 95.6093 172.623 87.6641 179.965 79.5173C183.235 75.8885 186.365 72.1997 189.318 68.6244C192.997 78.8957 195 89.9639 195 101.5Z" fill="#0F3A5F"/>
<path d="M187.615 64.21C184.262 68.3043 180.679 72.57 176.904 76.7594C169.654 84.8057 161.781 92.4689 153.622 97.9842C145.45 103.508 137.182 106.748 129.084 106.271C120.698 105.778 114.738 103.508 109.974 100.403C105.158 97.2634 101.482 93.2251 97.6642 88.9705L97.3842 88.6584C93.6997 84.5508 89.8406 80.2486 84.8088 76.8687C79.5886 73.3623 73.1725 70.8827 64.4086 70.3669C57.0812 69.9356 49.1643 72.8767 41.3147 77.6211C33.4292 82.3871 25.3874 89.1098 17.7444 96.5818C11.8405 102.354 6.14165 108.605 0.90047 114.806C0.701287 113.347 0.534406 111.877 0.400572 110.397C6.15548 102.37 12.7284 93.9841 19.6542 86.3674C26.6692 78.6525 33.9429 71.8418 40.9993 66.9889C48.1251 62.0884 54.6054 59.4783 60.1254 59.4783C67.8174 59.4783 73.2821 61.2894 77.734 63.9141C82.2855 66.5974 85.9156 70.1934 89.9968 74.2363L90.0677 74.3065C94.0754 78.2765 98.5158 82.6616 104.312 85.9717C110.216 89.3432 117.36 91.5205 126.799 91.5205C136.815 91.5205 146.186 86.9446 154.563 80.5341C162.964 74.1051 170.736 65.5475 177.628 56.9305C178.946 55.2826 180.238 53.6247 181.501 51.9714C183.813 55.8837 185.859 59.9715 187.615 64.21Z" fill="#0F3A5F"/>
<path opacity="0.7" fill-rule="evenodd" clip-rule="evenodd" d="M159.602 143.529C151.9 148.825 143.753 152.49 135.807 152.49C126.665 152.49 119.752 150.296 114.014 146.912C108.567 143.701 104.301 139.474 100.42 135.627C100.301 135.509 100.183 135.392 100.066 135.276C95.9868 131.235 92.2581 127.61 87.5338 124.912C82.9168 122.275 77.1883 120.447 69.1332 120.447C61.6558 120.447 54.0283 123.882 46.3765 129.738C38.7487 135.575 31.4614 143.539 24.7383 151.945C19.2534 158.802 14.2529 165.811 9.7857 172.073C8.7789 173.484 7.7992 174.857 6.84716 176.182C4.28203 179.752 1.8947 183.003 -0.246003 185.628C-2.31637 188.168 -4.42751 190.469 -6.4596 191.839L-11.0654 185.007C-10.1269 184.374 -8.66915 182.92 -6.63174 180.422C-4.66467 178.009 -2.40528 174.939 0.155936 171.374C1.07868 170.09 2.03779 168.746 3.03098 167.353C7.50175 161.086 12.6629 153.851 18.3039 146.798C25.1961 138.181 32.968 129.623 41.3691 123.194C49.7461 116.784 59.117 112.208 69.1332 112.208C78.5716 112.208 85.7157 114.385 91.6196 117.757C97.4162 121.067 101.857 125.452 105.864 129.422L105.935 129.492C110.016 133.535 113.647 137.131 118.198 139.814C122.65 142.439 128.115 144.25 135.807 144.25C141.327 144.25 147.807 141.64 154.933 136.74C161.989 131.887 169.263 125.076 176.278 117.361C190.303 101.936 202.882 83.3584 210.15 70.9841L217.255 75.1571C209.78 87.8826 196.877 106.954 182.374 122.904C175.125 130.877 167.372 138.185 159.602 143.529Z" fill="#5CFC4E"/>
<path opacity="0.5" fill-rule="evenodd" clip-rule="evenodd" d="M156.785 122.983C149.123 128.026 141.326 131.27 133.987 131.121C125.21 130.943 118.703 128.712 113.352 125.409C108.193 122.225 104.172 118.075 100.332 114.112L100.04 113.811C96.0613 109.706 92.2329 105.813 87.2994 102.861C82.4189 99.9412 76.3766 97.9029 67.9774 97.7325C59.867 97.5679 51.7299 101.123 43.7767 106.958C35.8358 112.783 28.2642 120.743 21.3287 129.063C15.6658 135.856 10.4828 142.818 5.88833 148.989C4.85664 150.375 3.85462 151.721 2.88352 153.016C0.247497 156.532 -2.1724 159.689 -4.32145 162.218C-6.43447 164.705 -8.42424 166.754 -10.2066 167.904L-12.4397 164.442C-11.2115 163.65 -9.55698 162.017 -7.46085 159.55C-5.40075 157.126 -3.04664 154.058 -0.412628 150.545C0.543432 149.27 1.53488 147.938 2.5596 146.561C7.15587 140.387 12.4214 133.314 18.1643 126.425C25.1866 118.001 33.0064 109.749 41.3399 103.636C49.6612 97.5317 58.6815 93.4233 68.061 93.6136C77.1517 93.7981 83.8981 96.0254 89.4145 99.3257C94.8778 102.594 99.0543 106.875 102.998 110.944L103.153 111.104C107.089 115.164 110.8 118.993 115.515 121.903C120.231 124.814 126.018 126.839 134.071 127.002C140.196 127.126 147.15 124.393 154.519 119.542C161.854 114.714 169.386 107.931 176.616 100.297C191.074 85.0307 204.11 66.59 211.682 54.279L215.191 56.4371C207.513 68.9216 194.309 87.6058 179.608 103.129C172.258 110.89 164.481 117.917 156.785 122.983Z" fill="#5CFC4E"/>
<path opacity="0.8" fill-rule="evenodd" clip-rule="evenodd" d="M165.666 169.702C157.726 175.163 148.884 179.268 139.926 179.268C130.181 179.268 122.665 176.914 116.389 173.215C110.566 169.781 106.032 165.286 102.202 161.488C102.056 161.344 101.912 161.201 101.769 161.06C97.6605 156.99 94.2283 153.681 89.9508 151.238C85.8701 148.908 80.7314 147.225 73.2527 147.225C66.8331 147.225 59.9321 150.185 52.5823 155.809C45.2768 161.4 38.1913 169.116 31.5388 177.434C26.1188 184.21 21.185 191.126 16.7198 197.384C15.7074 198.803 14.7191 200.188 13.7546 201.531C11.1879 205.103 8.74722 208.429 6.53417 211.143C4.45007 213.699 2.06666 216.353 -0.421078 218.03L-8.86499 205.505C-8.38213 205.18 -7.1967 204.079 -5.17302 201.597C-3.27828 199.273 -1.07221 196.278 1.48738 192.716C2.39806 191.449 3.34863 190.116 4.33608 188.732C8.80784 182.463 14.0361 175.133 19.7423 167.999C26.705 159.293 34.6788 150.489 43.4022 143.813C52.0813 137.171 62.1787 132.12 73.2527 132.12C83.2674 132.12 91.0013 134.443 97.4415 138.12C103.663 141.673 108.389 146.355 112.358 150.287L112.4 150.328C116.566 154.454 119.914 157.757 124.061 160.202C127.977 162.51 132.838 164.162 139.926 164.162C144.435 164.162 150.221 161.991 157.107 157.256C163.866 152.608 170.94 146.004 177.857 138.396C191.684 123.191 204.127 104.818 211.309 92.5903L224.334 100.241C216.774 113.113 203.736 132.39 189.033 148.559C181.686 156.639 173.734 164.154 165.666 169.702Z" fill="#5CFC4E"/>
<path fill-rule="evenodd" clip-rule="evenodd" d="M166.834 207.104C158.749 212.664 149.491 217.032 139.926 217.032C129.818 217.032 121.94 214.583 115.344 210.693C109.293 207.126 104.597 202.469 100.792 198.695C100.633 198.538 100.475 198.382 100.32 198.227C96.1932 194.14 92.9389 191.021 88.9295 188.731C85.1706 186.585 80.3858 184.99 73.2528 184.99C67.468 184.99 61.0028 187.664 53.8343 193.149C46.7222 198.592 39.7578 206.16 33.1475 214.425C27.7665 221.153 22.8726 228.012 18.4088 234.268C17.393 235.692 16.3995 237.084 15.4276 238.437C12.8598 242.011 10.3872 245.382 8.13076 248.149C6.03841 250.715 3.49165 253.581 0.730516 255.443L-10.0163 239.502C-10.017 239.502 -10.0165 239.502 -10.0145 239.5C-9.98682 239.479 -9.68161 239.251 -9.07003 238.625C-8.45035 237.99 -7.68848 237.127 -6.7693 236C-4.91797 233.729 -2.74389 230.779 -0.185275 227.219C0.71824 225.961 1.66371 224.636 2.64773 223.256C7.11993 216.986 12.3884 209.6 18.1339 202.416C25.1389 193.658 33.2338 184.705 42.1505 177.882C51.0109 171.101 61.5441 165.764 73.2528 165.764C83.6134 165.764 91.7012 168.175 98.4631 172.036C104.921 175.724 109.809 180.566 113.752 184.472L113.85 184.569C118.049 188.729 121.219 191.84 125.107 194.132C128.701 196.251 133.201 197.807 139.926 197.807C143.828 197.807 149.198 195.9 155.94 191.263C162.52 186.737 169.475 180.258 176.333 172.715C190.041 157.641 202.402 139.392 209.533 127.251L226.111 136.989C218.498 149.948 205.379 169.349 190.558 185.649C183.152 193.793 175.08 201.433 166.834 207.104Z" fill="#5CFC4E"/>
</g>
</svg>
