<svg width="408" height="257" viewBox="0 0 730 614" fill="none"
    xmlns="http://www.w3.org/2000/svg">
    <mask id="mask0_308_1806" style="mask-type:alpha" maskUnits="userSpaceOnUse" x="200" y="0" width="330" height="330">
        <circle cx="365" cy="165" r="165" fill="#D9D9D9"/>
    </mask>
    <g mask="url(#mask0_308_1806)">
        <path d="M315.94 7.41637C283.37 17.5455 255.125 37.494 234.67 63.7992C240.116 59.0244 245.651 54.6421 251.219 50.8133C264.657 41.5714 279.62 34.6255 294.779 34.6255C311.271 34.6255 323.991 38.6087 334.61 44.8693C344.466 50.6794 352.139 58.2871 358.621 64.7138L359.352 65.4393C366.306 72.3269 372.114 77.9267 379.353 82.0605C386.258 86.004 394.955 88.8509 407.611 88.8509C418.475 88.8509 430.154 83.8431 442.592 74.3248C453.732 65.7996 464.57 54.3526 474.842 41.873C471.558 38.9413 468.156 36.139 464.644 33.4741C463.192 34.672 461.725 35.8391 460.245 36.9714C445.251 48.446 427.426 57.4774 407.611 57.4774C390.078 57.4774 376.391 53.3983 364.947 46.8636C354.019 40.6228 345.747 32.4291 339.074 25.8183L338.909 25.6543C331.802 18.6149 326.436 13.3495 319.857 9.47073C318.621 8.74187 317.321 8.05238 315.94 7.41637Z" fill="#0F3A5F"/>
        <path d="M434.568 15.3394C424.764 21.7866 415.786 24.9422 407.611 24.9422C395.54 24.9422 387.442 22.2431 381.081 18.6105C374.296 14.7358 368.789 9.45746 361.805 2.53996L361.007 1.74821C360.461 1.2073 359.905 0.655669 359.338 0.0953402C361.217 0.0319505 363.105 0 365 0C389.856 0 413.429 5.49612 434.568 15.3394Z" fill="#0F3A5F"/>
        <path d="M458.127 94.6259C470.635 85.0539 482.233 72.8951 492.651 60.444C494.872 63.1524 497.008 65.9328 499.056 68.7811C496.042 72.7978 492.926 76.8469 489.712 80.8652C478.335 95.0899 466.002 108.568 453.094 118.446C440.145 128.356 427.237 134.168 414.583 134.168C400.951 134.168 391.256 131.075 383.443 126.613C375.448 122.047 369.138 115.912 362.235 109.074L361.636 108.48C355.067 101.97 347.849 94.8156 338.631 89.3814C328.919 83.6558 317.221 79.9427 301.751 79.9427C288.302 79.9427 274.515 86.1447 261.482 95.1076C248.332 104.151 235.213 116.518 222.944 130.01C214.997 138.75 207.334 148.044 200.174 157.348C200.459 151.12 201.088 144.981 202.045 138.951C210.765 127.08 220.457 114.934 230.588 103.792C242.294 90.9181 254.266 79.7428 265.704 71.8764C277.357 63.8622 287.149 60.1889 294.779 60.1889C306.774 60.1889 315.001 62.9839 321.628 66.8906C328.645 71.0276 334.312 76.6172 341.362 83.6005L341.433 83.6705C348.15 90.3248 356.147 98.2469 366.676 104.259C377.575 110.483 390.663 114.414 407.611 114.414C426.352 114.414 443.44 105.866 458.127 94.6259Z" fill="#0F3A5F"/>
        <path d="M530 165C530 256.127 456.127 330 365 330C284.68 330 217.764 272.609 203.022 196.598C212.786 184.778 223.629 172.684 234.903 161.662C247.626 149.223 260.806 138.243 273.523 130.556C286.302 122.833 298.239 118.664 308.589 119.273C322.196 120.074 331.85 123.875 339.635 129.104C347.42 134.333 353.445 141.048 359.837 148.172L360.089 148.453C366.493 155.589 373.277 163.101 382.303 168.984C391.416 174.924 402.68 179.13 418.041 180.034C433.889 180.967 449.411 174.607 463.88 164.826C478.371 155.031 492.132 141.585 504.556 127.798C510.089 121.658 515.387 115.415 520.385 109.364C526.61 126.747 530 145.477 530 165Z" fill="#0F3A5F"/>
        <path d="M517.502 101.894C511.828 108.823 505.765 116.042 499.376 123.131C487.106 136.748 473.784 149.717 459.976 159.05C446.147 168.398 432.155 173.881 418.45 173.074C404.258 172.239 394.173 168.399 386.11 163.143C377.959 157.83 371.739 150.996 365.278 143.796L364.804 143.268C358.569 136.317 352.038 129.036 343.523 123.316C334.688 117.382 323.83 113.186 308.999 112.313C296.599 111.583 283.201 116.561 269.917 124.589C256.572 132.655 242.963 144.032 230.029 156.677C220.038 166.445 210.394 177.024 201.524 187.518C201.187 185.048 200.904 182.561 200.678 180.057C210.417 166.472 221.54 152.281 233.261 139.391C245.133 126.335 257.442 114.809 269.383 106.597C281.442 98.3034 292.409 93.8863 301.751 93.8863C314.768 93.8863 324.016 96.9514 331.55 101.393C339.252 105.934 345.396 112.02 352.302 118.861L352.422 118.98C359.205 125.699 366.719 133.12 376.529 138.721C386.52 144.427 398.61 148.112 414.583 148.112C431.533 148.112 447.392 140.368 461.568 129.519C475.785 118.639 488.938 104.157 500.601 89.5747C502.832 86.7859 505.018 83.9802 507.156 81.1824C511.068 87.8032 514.531 94.721 517.502 101.894Z" fill="#0F3A5F"/>
        <path opacity="0.7" fill-rule="evenodd" clip-rule="evenodd" d="M470.095 236.125C457.062 245.088 443.275 251.29 429.827 251.29C414.356 251.29 402.658 247.577 392.946 241.852C383.728 236.417 376.51 229.263 369.941 222.753C369.741 222.554 369.541 222.356 369.342 222.159C362.439 215.321 356.129 209.186 348.134 204.62C340.321 200.158 330.626 197.065 316.995 197.065C304.341 197.065 291.433 202.877 278.483 212.787C265.575 222.665 253.242 236.143 241.865 250.368C232.583 261.973 224.12 273.835 216.56 284.431C214.857 286.82 213.199 289.143 211.587 291.386C207.247 297.427 203.206 302.928 199.584 307.371C196.08 311.668 192.507 315.563 189.068 317.881L181.274 306.319C182.862 305.249 185.329 302.788 188.777 298.56C192.106 294.477 195.93 289.281 200.264 283.249C201.825 281.076 203.449 278.801 205.129 276.444C212.695 265.838 221.429 253.594 230.976 241.658C242.64 227.076 255.792 212.594 270.009 201.714C284.186 190.865 300.044 183.121 316.995 183.121C332.967 183.121 345.057 186.806 355.049 192.512C364.858 198.113 372.373 205.534 379.155 212.253L379.275 212.372C386.182 219.213 392.325 225.299 400.027 229.84C407.561 234.282 416.809 237.347 429.827 237.347C439.168 237.347 450.135 232.93 462.194 224.636C474.135 216.424 486.445 204.898 498.316 191.842C522.052 165.739 543.338 134.299 555.638 113.358L567.662 120.42C555.012 141.955 533.177 174.23 508.633 201.223C496.365 214.715 483.245 227.082 470.095 236.125Z" fill="#5CFC4E"/>
        <path opacity="0.5" fill-rule="evenodd" clip-rule="evenodd" d="M465.328 201.356C452.363 209.891 439.166 215.38 426.747 215.128C411.893 214.826 400.882 211.051 391.826 205.462C383.097 200.074 376.291 193.05 369.792 186.344L369.298 185.834C362.565 178.888 356.086 172.298 347.737 167.303C339.478 162.362 329.253 158.913 315.039 158.624C301.313 158.346 287.543 164.363 274.084 174.236C260.645 184.094 247.832 197.566 236.095 211.645C226.511 223.14 217.74 234.922 209.965 245.366C208.219 247.711 206.523 249.989 204.88 252.181C200.419 258.131 196.324 263.474 192.687 267.754C189.111 271.962 185.744 275.43 182.727 277.376L178.948 271.517C181.027 270.176 183.827 267.414 187.374 263.239C190.86 259.136 194.844 253.944 199.302 247.999C200.92 245.841 202.597 243.587 204.332 241.258C212.11 230.809 221.021 218.839 230.74 207.181C242.623 192.926 255.857 178.96 269.96 168.615C284.042 158.285 299.307 151.332 315.18 151.654C330.564 151.966 341.981 155.735 351.317 161.321C360.562 166.852 367.63 174.096 374.304 180.982L374.567 181.252C381.228 188.125 387.507 194.603 395.488 199.529C403.468 204.454 413.261 207.881 426.889 208.157C437.255 208.368 449.023 203.742 461.494 195.533C473.907 187.363 486.654 175.883 498.889 162.963C523.356 137.129 545.417 105.922 558.23 85.0876L564.169 88.7398C551.176 109.867 528.831 141.487 503.951 167.758C491.513 180.891 478.352 192.783 465.328 201.356Z" fill="#5CFC4E"/>
        <path opacity="0.8" fill-rule="evenodd" clip-rule="evenodd" d="M480.359 280.419C466.92 289.661 451.958 296.607 436.798 296.607C420.306 296.607 407.586 292.624 396.967 286.363C387.112 280.553 379.439 272.945 372.957 266.519C372.711 266.275 372.467 266.033 372.225 265.793C365.272 258.906 359.463 253.306 352.224 249.172C345.319 245.229 336.622 242.382 323.966 242.382C313.102 242.382 301.424 247.389 288.985 256.908C276.622 266.369 264.631 279.428 253.373 293.503C244.201 304.971 235.851 316.674 228.295 327.265C226.582 329.667 224.909 332.011 223.277 334.283C218.933 340.328 214.803 345.956 211.058 350.549C207.531 354.875 203.497 359.367 199.287 362.205L184.998 341.009C185.815 340.458 187.821 338.595 191.246 334.395C194.452 330.463 198.185 325.394 202.517 319.366C204.058 317.221 205.667 314.966 207.338 312.623C214.906 302.014 223.753 289.609 233.41 277.536C245.193 262.804 258.687 247.904 273.45 236.607C288.138 225.367 305.225 216.818 323.966 216.818C340.914 216.818 354.002 220.749 364.901 226.973C375.43 232.986 383.427 240.908 390.144 247.562L390.215 247.632C397.265 254.615 402.932 260.205 409.949 264.342C416.576 268.249 424.803 271.044 436.798 271.044C444.428 271.044 454.22 267.37 465.873 259.356C477.311 251.49 489.283 240.314 500.989 227.44C524.388 201.707 545.445 170.616 557.6 149.922L579.643 162.869C566.848 184.652 544.783 217.275 519.903 244.638C507.469 258.312 494.012 271.029 480.359 280.419Z" fill="#5CFC4E"/>
        <path fill-rule="evenodd" clip-rule="evenodd" d="M482.334 343.714C468.652 353.124 452.984 360.516 436.798 360.516C419.693 360.516 406.36 356.371 395.197 349.789C384.957 343.753 377.01 335.871 370.57 329.484C370.301 329.218 370.035 328.954 369.772 328.693C362.788 321.775 357.281 316.497 350.496 312.622C344.135 308.99 336.037 306.29 323.966 306.29C314.177 306.29 303.235 310.815 291.104 320.099C279.068 329.309 267.282 342.118 256.096 356.104C246.989 367.489 238.707 379.097 231.153 389.685C229.434 392.094 227.753 394.451 226.108 396.74C221.763 402.787 217.578 408.492 213.76 413.175C210.219 417.518 205.909 422.368 201.236 425.519L183.049 398.541C183.048 398.542 183.049 398.541 183.052 398.539C183.099 398.504 183.616 398.117 184.651 397.057C185.699 395.984 186.989 394.523 188.544 392.615C191.677 388.773 195.356 383.781 199.686 377.755C201.215 375.627 202.816 373.383 204.481 371.049C212.049 360.438 220.965 347.938 230.688 335.782C242.543 320.96 256.242 305.809 271.332 294.261C286.326 282.787 304.152 273.755 323.966 273.755C341.5 273.755 355.187 277.834 366.63 284.369C377.559 290.61 385.83 298.804 392.503 305.414L392.669 305.578C399.775 312.618 405.141 317.883 411.72 321.762C417.802 325.348 425.416 327.981 436.798 327.981C443.402 327.981 452.488 324.754 463.898 316.907C475.034 309.248 486.803 298.283 498.41 285.518C521.607 260.007 542.527 229.125 554.595 208.58L582.649 225.058C569.767 246.989 547.565 279.821 522.482 307.406C509.95 321.189 496.289 334.117 482.334 343.714Z" fill="#5CFC4E"/>
    </g>
    <path d="M20.336 414.864C17.6027 414.864 15.3067 413.935 13.448 412.076C11.5893 410.217 10.66 407.921 10.66 405.188C10.66 402.455 11.5893 400.159 13.448 398.3C15.3067 396.441 17.6027 395.512 20.336 395.512C23.1787 395.512 25.5293 396.441 27.388 398.3C29.356 400.159 30.34 402.455 30.34 405.188C30.34 407.921 29.356 410.217 27.388 412.076C25.5293 413.935 23.1787 414.864 20.336 414.864ZM11.972 430.28H28.864V509H11.972V430.28ZM51.66 430.28H67.404V441.596C71.1213 437.004 75.3307 433.56 80.032 431.264C84.7333 428.968 89.5987 427.82 94.628 427.82C100.969 427.82 105.999 428.913 109.716 431.1C113.433 433.177 116.167 436.403 117.916 440.776C121.415 436.512 125.679 433.287 130.708 431.1C135.847 428.913 140.985 427.82 146.124 427.82C155.745 427.82 162.688 430.28 166.952 435.2C171.216 440.011 173.348 447.172 173.348 456.684V509H157.276V458.816C157.276 452.365 156.073 447.828 153.668 445.204C151.263 442.471 147.163 441.104 141.368 441.104C133.059 441.104 126.28 444.712 121.032 451.928C121.251 453.568 121.36 456.247 121.36 459.964V509H105.288V458.816C105.288 452.365 104.195 447.828 102.008 445.204C99.8213 442.471 95.8853 441.104 90.2 441.104C81.8907 441.104 74.456 445.805 67.896 455.208V509H51.66V430.28ZM219.684 511.46C210.172 511.46 202.519 509.055 196.724 504.244C191.039 499.324 188.196 492.709 188.196 484.4C188.196 475.653 190.93 468.929 196.396 464.228C201.972 459.417 209.844 457.012 220.012 457.012C230.836 457.012 240.02 459.199 247.564 463.572V459.472C247.564 453.24 245.651 448.648 241.824 445.696C238.107 442.635 232.203 441.104 224.112 441.104C219.302 441.104 214.6 441.596 210.008 442.58C205.526 443.455 201.48 444.712 197.872 446.352V432.904C201.152 431.373 205.416 430.171 210.664 429.296C215.912 428.312 220.996 427.82 225.916 427.82C238.927 427.82 248.548 430.717 254.78 436.512C261.122 442.197 264.292 450.124 264.292 460.292V509H248.712V500.144C245.323 503.861 241.278 506.704 236.576 508.672C231.984 510.531 226.354 511.46 219.684 511.46ZM223.784 498.832C229.032 498.832 233.788 497.793 238.052 495.716C242.316 493.639 245.487 490.741 247.564 487.024V476.364C240.458 471.772 232.531 469.476 223.784 469.476C217.443 469.476 212.687 470.733 209.516 473.248C206.455 475.653 204.924 479.371 204.924 484.4C204.924 494.021 211.211 498.832 223.784 498.832ZM326.012 546.72C320.654 546.72 315.406 546.283 310.268 545.408C305.238 544.533 300.974 543.276 297.476 541.636V528.024C305.676 531.741 315.188 533.6 326.012 533.6C336.18 533.6 343.56 531.359 348.152 526.876C352.853 522.503 355.204 515.833 355.204 506.868V498.504C347.988 507.141 337.382 511.46 323.388 511.46C315.406 511.46 308.245 509.711 301.904 506.212C295.562 502.713 290.588 497.793 286.98 491.452C283.372 485.111 281.568 477.84 281.568 469.64C281.568 461.331 283.317 454.06 286.816 447.828C290.424 441.487 295.344 436.567 301.576 433.068C307.917 429.569 315.024 427.82 322.896 427.82C330.221 427.82 336.398 428.913 341.428 431.1C346.566 433.177 351.322 436.676 355.696 441.596V430.28H371.768V505.064C371.768 518.512 367.996 528.789 360.452 535.896C353.017 543.112 341.537 546.72 326.012 546.72ZM326.668 498.34C333.446 498.34 339.405 496.536 344.544 492.928C349.792 489.32 353.345 484.509 355.204 478.496V460.784C353.126 454.661 349.518 449.851 344.38 446.352C339.35 442.853 333.446 441.104 326.668 441.104C321.31 441.104 316.445 442.307 312.072 444.712C307.808 447.008 304.418 450.343 301.904 454.716C299.498 459.089 298.295 464.064 298.295 469.64C298.295 475.325 299.498 480.355 301.904 484.728C304.418 488.992 307.808 492.327 312.072 494.732C316.445 497.137 321.31 498.34 326.668 498.34ZM436.409 511.46C421.868 511.46 410.442 507.852 402.133 500.636C393.933 493.311 389.833 483.033 389.833 469.804C389.833 456.903 393.496 446.68 400.821 439.136C408.256 431.592 418.806 427.82 432.473 427.82C441.548 427.82 449.256 429.569 455.597 433.068C461.938 436.457 466.694 441.213 469.865 447.336C473.145 453.349 474.785 460.237 474.785 468V476.2H405.577C406.124 483.635 409.24 489.211 414.925 492.928C420.72 496.536 428.537 498.34 438.377 498.34C443.406 498.34 448.49 497.903 453.629 497.028C458.768 496.044 463.305 494.787 467.241 493.256V506.54C463.742 507.961 459.096 509.109 453.301 509.984C447.616 510.968 441.985 511.46 436.409 511.46ZM459.205 464.556C458.986 457.121 456.526 451.381 451.825 447.336C447.233 443.181 440.673 441.104 432.145 441.104C423.836 441.104 417.385 443.236 412.793 447.5C408.201 451.764 405.796 457.449 405.577 464.556H459.205Z" fill="#232323"/>
    <path d="M13.448 412.076C15.3067 413.935 17.6027 414.864 20.336 414.864C23.1787 414.864 25.5293 413.935 27.388 412.076C29.356 410.217 30.34 407.921 30.34 405.188C30.34 402.455 29.356 400.159 27.388 398.3C25.5293 396.441 23.1787 395.512 20.336 395.512C17.6027 395.512 15.3067 396.441 13.448 398.3C11.5893 400.159 10.66 402.455 10.66 405.188C10.66 407.921 11.5893 410.217 13.448 412.076Z" fill="#5CFC4E"/>
    <path d="M486.285 458.973H494.023L505.411 497.736L516.653 458.973H522.493L533.662 497.736L545.05 458.973H552.788L537.896 510H530.815L519.5 471.456L508.258 510H501.177L486.285 458.973ZM572.024 458.973H579.178L599.545 510H591.953L586.843 497.298H564.286L559.322 510H551.657L572.024 458.973ZM584.799 491.093L575.601 467.222L566.403 491.093H584.799ZM596.284 458.973H604.168L620.228 499.853L636.288 458.973H644.172L623.805 510H616.651L596.284 458.973ZM652.209 458.973H685.862V465.251H659.655V481.384H679.219V487.589H659.655V503.795H685.862V510H652.209V458.973ZM707.719 511.095C704.799 511.095 701.903 510.827 699.032 510.292C696.209 509.805 693.897 509.124 692.097 508.248V501.532C696.769 503.722 701.806 504.817 707.208 504.817C714.8 504.817 718.596 502.262 718.596 497.152C718.596 495.4 718.182 493.989 717.355 492.918C716.527 491.847 715.335 490.923 713.778 490.144C712.22 489.317 709.69 488.197 706.186 486.786C701.368 484.839 697.888 482.698 695.747 480.362C693.605 478.026 692.535 475.082 692.535 471.529C692.535 468.852 693.265 466.492 694.725 464.448C696.185 462.355 698.229 460.749 700.857 459.63C703.485 458.462 706.502 457.878 709.909 457.878C712.683 457.878 715.189 458.097 717.428 458.535C719.666 458.973 721.856 459.679 723.998 460.652V467.076C719.764 465.178 715.481 464.229 711.15 464.229C707.646 464.229 704.969 464.862 703.12 466.127C701.27 467.392 700.346 469.193 700.346 471.529C700.346 473.135 700.735 474.498 701.514 475.617C702.341 476.688 703.533 477.661 705.091 478.537C706.697 479.364 709.057 480.411 712.172 481.676C715.627 483.087 718.352 484.426 720.348 485.691C722.343 486.956 723.852 488.514 724.874 490.363C725.944 492.164 726.48 494.427 726.48 497.152C726.48 501.581 724.898 505.012 721.735 507.445C718.571 509.878 713.899 511.095 707.719 511.095Z" fill="#0F3A5F"/>
    <path d="M143.45 587.224H145.394L149.522 600.832L153.65 587.224H155.138L159.194 600.856L163.322 587.224H165.266L160.25 604H158.426L154.346 590.296L150.29 604H148.466L143.45 587.224ZM172.528 604.36C170.432 604.36 168.792 603.824 167.608 602.752C166.44 601.68 165.856 600.184 165.856 598.264C165.856 596.376 166.384 594.88 167.44 593.776C168.496 592.672 170 592.12 171.952 592.12C173.264 592.12 174.376 592.376 175.288 592.888C176.2 593.384 176.888 594.072 177.352 594.952C177.816 595.832 178.048 596.832 178.048 597.952V598.96H167.584C167.648 600.272 168.128 601.256 169.024 601.912C169.936 602.568 171.168 602.896 172.72 602.896C173.472 602.896 174.208 602.832 174.928 602.704C175.664 602.56 176.32 602.368 176.896 602.128V603.688C176.416 603.88 175.76 604.04 174.928 604.168C174.112 604.296 173.312 604.36 172.528 604.36ZM176.32 597.64C176.288 596.392 175.904 595.408 175.168 594.688C174.432 593.968 173.352 593.608 171.928 593.608C170.536 593.608 169.472 593.984 168.736 594.736C168 595.472 167.616 596.44 167.584 597.64H176.32ZM194.711 604.36C193.175 604.36 191.991 603.944 191.159 603.112C190.343 602.28 189.935 601.168 189.935 599.776V592.48H191.783V599.872C191.783 601.888 192.831 602.896 194.927 602.896C195.807 602.896 196.575 602.704 197.231 602.32C197.903 601.936 198.503 601.328 199.031 600.496V592.48H200.879V604H199.079V602.272C198.039 603.664 196.583 604.36 194.711 604.36ZM204.235 592.48H206.035V594.208C206.595 593.488 207.275 592.96 208.075 592.624C208.891 592.288 209.755 592.12 210.667 592.12C212.187 592.12 213.315 592.52 214.051 593.32C214.803 594.12 215.179 595.192 215.179 596.536V604H213.331V596.704C213.331 595.712 213.091 594.952 212.611 594.424C212.131 593.88 211.363 593.608 210.307 593.608C208.531 593.608 207.123 594.408 206.083 596.008V604H204.235V592.48ZM223.958 604.36C222.822 604.36 221.798 604.112 220.886 603.616C219.974 603.12 219.254 602.408 218.726 601.48C218.198 600.552 217.934 599.48 217.934 598.264C217.934 597.064 218.19 596 218.702 595.072C219.23 594.128 219.95 593.4 220.862 592.888C221.79 592.376 222.822 592.12 223.958 592.12C225.062 592.12 226.038 592.32 226.886 592.72C227.75 593.104 228.438 593.672 228.95 594.424V586.264H230.798V604H228.998V601.984C228.39 602.784 227.67 603.384 226.838 603.784C226.022 604.168 225.062 604.36 223.958 604.36ZM224.342 602.896C225.446 602.896 226.406 602.616 227.222 602.056C228.054 601.48 228.63 600.696 228.95 599.704V596.824C228.646 595.832 228.078 595.048 227.246 594.472C226.43 593.896 225.462 593.608 224.342 593.608C223.494 593.608 222.718 593.808 222.014 594.208C221.326 594.592 220.782 595.136 220.382 595.84C219.982 596.544 219.782 597.352 219.782 598.264C219.782 599.176 219.982 599.984 220.382 600.688C220.782 601.392 221.326 601.936 222.014 602.32C222.718 602.704 223.494 602.896 224.342 602.896ZM240.356 604.36C238.26 604.36 236.62 603.824 235.436 602.752C234.268 601.68 233.684 600.184 233.684 598.264C233.684 596.376 234.212 594.88 235.268 593.776C236.324 592.672 237.828 592.12 239.78 592.12C241.092 592.12 242.204 592.376 243.116 592.888C244.028 593.384 244.716 594.072 245.18 594.952C245.644 595.832 245.876 596.832 245.876 597.952V598.96H235.412C235.476 600.272 235.956 601.256 236.852 601.912C237.764 602.568 238.996 602.896 240.548 602.896C241.3 602.896 242.036 602.832 242.756 602.704C243.492 602.56 244.148 602.368 244.724 602.128V603.688C244.244 603.88 243.588 604.04 242.756 604.168C241.94 604.296 241.14 604.36 240.356 604.36ZM244.148 597.64C244.116 596.392 243.732 595.408 242.996 594.688C242.26 593.968 241.18 593.608 239.756 593.608C238.364 593.608 237.3 593.984 236.564 594.736C235.828 595.472 235.444 596.44 235.412 597.64H244.148ZM248.766 592.48H250.566V594.736C251.494 593.232 253.23 592.48 255.774 592.48V593.968C252.99 593.968 251.27 594.888 250.614 596.728V604H248.766V592.48ZM261.821 604.36C261.069 604.36 260.261 604.248 259.397 604.024C258.533 603.816 257.861 603.552 257.381 603.232V601.672C257.989 602.04 258.685 602.336 259.469 602.56C260.269 602.784 261.037 602.896 261.773 602.896C262.765 602.896 263.477 602.76 263.909 602.488C264.357 602.2 264.581 601.776 264.581 601.216C264.581 600.784 264.485 600.448 264.293 600.208C264.101 599.952 263.781 599.728 263.333 599.536C262.885 599.344 262.189 599.12 261.245 598.864C260.317 598.608 259.573 598.344 259.013 598.072C258.469 597.784 258.053 597.424 257.765 596.992C257.477 596.56 257.333 596.008 257.333 595.336C257.333 594.296 257.749 593.504 258.581 592.96C259.429 592.4 260.549 592.12 261.941 592.12C262.693 592.12 263.397 592.192 264.053 592.336C264.725 592.464 265.285 592.648 265.733 592.888V594.448C265.269 594.192 264.709 593.992 264.053 593.848C263.397 593.688 262.717 593.608 262.013 593.608C261.085 593.608 260.381 593.744 259.901 594.016C259.421 594.288 259.181 594.728 259.181 595.336C259.181 595.752 259.261 596.072 259.421 596.296C259.597 596.52 259.909 596.728 260.357 596.92C260.821 597.096 261.557 597.32 262.565 597.592C264.005 597.992 265.005 598.464 265.565 599.008C266.141 599.536 266.429 600.272 266.429 601.216C266.429 602.192 266.045 602.96 265.277 603.52C264.525 604.08 263.373 604.36 261.821 604.36ZM273.218 604.36C272.13 604.36 271.282 604.04 270.674 603.4C270.082 602.76 269.786 601.848 269.786 600.664V593.92H267.986V592.48H269.786V589.024H271.634V592.48H274.538V593.92H271.634V600.712C271.634 601.512 271.794 602.08 272.114 602.416C272.434 602.736 273.018 602.896 273.866 602.896C274.282 602.896 274.722 602.8 275.186 602.608V604.12C274.658 604.28 274.002 604.36 273.218 604.36ZM281.392 604.36C280 604.36 278.896 604.016 278.08 603.328C277.28 602.624 276.88 601.664 276.88 600.448C276.88 599.184 277.272 598.216 278.056 597.544C278.84 596.856 279.976 596.512 281.464 596.512C283.128 596.512 284.56 596.856 285.76 597.544V596.68C285.76 595.64 285.464 594.872 284.872 594.376C284.28 593.864 283.344 593.608 282.064 593.608C280.704 593.608 279.448 593.864 278.296 594.376V592.816C278.776 592.608 279.384 592.44 280.12 592.312C280.856 592.184 281.56 592.12 282.232 592.12C284.056 592.12 285.408 592.536 286.288 593.368C287.168 594.184 287.608 595.32 287.608 596.776V604H285.88V602.512C284.872 603.744 283.376 604.36 281.392 604.36ZM281.848 602.848C282.712 602.848 283.488 602.68 284.176 602.344C284.88 601.992 285.408 601.504 285.76 600.88V599.032C285.136 598.664 284.512 598.4 283.888 598.24C283.28 598.064 282.592 597.976 281.824 597.976C280.736 597.976 279.944 598.184 279.448 598.6C278.968 599 278.728 599.616 278.728 600.448C278.728 602.048 279.768 602.848 281.848 602.848ZM290.836 592.48H292.636V594.208C293.196 593.488 293.876 592.96 294.676 592.624C295.492 592.288 296.356 592.12 297.268 592.12C298.788 592.12 299.916 592.52 300.652 593.32C301.404 594.12 301.78 595.192 301.78 596.536V604H299.932V596.704C299.932 595.712 299.692 594.952 299.212 594.424C298.732 593.88 297.964 593.608 296.908 593.608C295.132 593.608 293.724 594.408 292.684 596.008V604H290.836V592.48ZM310.56 604.36C309.424 604.36 308.4 604.112 307.488 603.616C306.576 603.12 305.856 602.408 305.328 601.48C304.8 600.552 304.536 599.48 304.536 598.264C304.536 597.064 304.792 596 305.304 595.072C305.832 594.128 306.552 593.4 307.464 592.888C308.392 592.376 309.424 592.12 310.56 592.12C311.664 592.12 312.64 592.32 313.488 592.72C314.352 593.104 315.04 593.672 315.552 594.424V586.264H317.4V604H315.6V601.984C314.992 602.784 314.272 603.384 313.44 603.784C312.624 604.168 311.664 604.36 310.56 604.36ZM310.944 602.896C312.048 602.896 313.008 602.616 313.824 602.056C314.656 601.48 315.232 600.696 315.552 599.704V596.824C315.248 595.832 314.68 595.048 313.848 594.472C313.032 593.896 312.064 593.608 310.944 593.608C310.096 593.608 309.32 593.808 308.616 594.208C307.928 594.592 307.384 595.136 306.984 595.84C306.584 596.544 306.384 597.352 306.384 598.264C306.384 599.176 306.584 599.984 306.984 600.688C307.384 601.392 307.928 601.936 308.616 602.32C309.32 602.704 310.096 602.896 310.944 602.896ZM332.043 608.752C331.307 608.752 330.651 608.68 330.075 608.536V607.048C330.251 607.112 330.499 607.168 330.819 607.216C331.155 607.264 331.435 607.288 331.659 607.288C332.203 607.288 332.643 607.144 332.979 606.856C333.315 606.568 333.619 606.088 333.891 605.416L334.515 603.928L329.403 592.48H331.371L335.499 601.792L339.315 592.48H341.283L335.955 605.536C335.507 606.64 334.979 607.448 334.371 607.96C333.779 608.488 333.003 608.752 332.043 608.752ZM348.022 604.36C346.774 604.36 345.662 604.112 344.686 603.616C343.726 603.12 342.974 602.416 342.43 601.504C341.902 600.576 341.638 599.496 341.638 598.264C341.638 597.048 341.91 595.976 342.454 595.048C342.998 594.12 343.75 593.4 344.71 592.888C345.686 592.376 346.79 592.12 348.022 592.12C349.254 592.12 350.35 592.376 351.31 592.888C352.286 593.4 353.046 594.12 353.59 595.048C354.134 595.976 354.406 597.048 354.406 598.264C354.406 599.496 354.134 600.576 353.59 601.504C353.062 602.416 352.31 603.12 351.334 603.616C350.374 604.112 349.27 604.36 348.022 604.36ZM348.022 602.896C349.398 602.896 350.494 602.48 351.31 601.648C352.141 600.8 352.557 599.672 352.557 598.264C352.557 596.84 352.141 595.712 351.31 594.88C350.494 594.032 349.398 593.608 348.022 593.608C346.646 593.608 345.542 594.032 344.71 594.88C343.894 595.712 343.486 596.84 343.486 598.264C343.486 599.672 343.894 600.8 344.71 601.648C345.542 602.48 346.646 602.896 348.022 602.896ZM361.938 604.36C360.402 604.36 359.218 603.944 358.386 603.112C357.57 602.28 357.162 601.168 357.162 599.776V592.48H359.01V599.872C359.01 601.888 360.058 602.896 362.154 602.896C363.034 602.896 363.802 602.704 364.458 602.32C365.13 601.936 365.73 601.328 366.258 600.496V592.48H368.106V604H366.306V602.272C365.266 603.664 363.81 604.36 361.938 604.36ZM371.461 592.48H373.261V594.736C374.189 593.232 375.925 592.48 378.469 592.48V593.968C375.685 593.968 373.965 594.888 373.309 596.728V604H371.461V592.48ZM391.129 589.984C390.809 589.984 390.537 589.872 390.313 589.648C390.089 589.424 389.977 589.152 389.977 588.832C389.977 588.512 390.089 588.24 390.313 588.016C390.537 587.792 390.809 587.68 391.129 587.68C391.449 587.68 391.721 587.792 391.945 588.016C392.185 588.24 392.305 588.512 392.305 588.832C392.305 589.152 392.185 589.424 391.945 589.648C391.721 589.872 391.449 589.984 391.129 589.984ZM390.217 592.48H392.065V604H390.217V592.48ZM395.672 592.48H397.448V594.28C398.552 592.84 399.92 592.12 401.552 592.12C402.512 592.12 403.256 592.288 403.784 592.624C404.328 592.96 404.72 593.464 404.96 594.136C405.472 593.448 406.104 592.944 406.856 592.624C407.624 592.288 408.408 592.12 409.208 592.12C410.584 592.12 411.584 592.472 412.208 593.176C412.832 593.88 413.144 594.92 413.144 596.296V604H411.32V596.512C411.32 595.44 411.128 594.688 410.744 594.256C410.376 593.824 409.712 593.608 408.752 593.608C407.376 593.608 406.24 594.224 405.344 595.456C405.392 595.68 405.416 596.048 405.416 596.56V604H403.616V596.56C403.616 595.488 403.44 594.728 403.088 594.28C402.736 593.832 402.08 593.608 401.12 593.608C399.744 593.608 398.536 594.376 397.496 595.912V604H395.672V592.48ZM420.071 604.36C418.679 604.36 417.575 604.016 416.759 603.328C415.959 602.624 415.559 601.664 415.559 600.448C415.559 599.184 415.951 598.216 416.735 597.544C417.519 596.856 418.655 596.512 420.143 596.512C421.807 596.512 423.239 596.856 424.439 597.544V596.68C424.439 595.64 424.143 594.872 423.551 594.376C422.959 593.864 422.023 593.608 420.743 593.608C419.383 593.608 418.127 593.864 416.975 594.376V592.816C417.455 592.608 418.063 592.44 418.799 592.312C419.535 592.184 420.239 592.12 420.911 592.12C422.735 592.12 424.087 592.536 424.967 593.368C425.847 594.184 426.287 595.32 426.287 596.776V604H424.559V602.512C423.551 603.744 422.055 604.36 420.071 604.36ZM420.527 602.848C421.391 602.848 422.167 602.68 422.855 602.344C423.559 601.992 424.087 601.504 424.439 600.88V599.032C423.815 598.664 423.191 598.4 422.567 598.24C421.959 598.064 421.271 597.976 420.503 597.976C419.415 597.976 418.623 598.184 418.127 598.6C417.647 599 417.407 599.616 417.407 600.448C417.407 602.048 418.447 602.848 420.527 602.848ZM435.468 609.52C434.7 609.52 433.948 609.456 433.212 609.328C432.476 609.2 431.852 609.024 431.34 608.8V607.24C432.556 607.784 433.932 608.056 435.468 608.056C437.036 608.056 438.188 607.696 438.924 606.976C439.676 606.272 440.052 605.2 440.052 603.76V602.056C439.012 603.592 437.364 604.36 435.108 604.36C433.972 604.36 432.94 604.112 432.012 603.616C431.084 603.104 430.356 602.384 429.828 601.456C429.3 600.528 429.036 599.464 429.036 598.264C429.036 597.048 429.3 595.976 429.828 595.048C430.356 594.12 431.076 593.4 431.988 592.888C432.9 592.376 433.924 592.12 435.06 592.12C436.244 592.12 437.228 592.304 438.012 592.672C438.796 593.024 439.492 593.608 440.1 594.424V592.48H441.9V603.52C441.9 605.472 441.372 606.96 440.316 607.984C439.26 609.008 437.644 609.52 435.468 609.52ZM435.444 602.896C436.58 602.896 437.556 602.608 438.372 602.032C439.188 601.456 439.748 600.664 440.052 599.656V596.8C439.732 595.792 439.164 595.008 438.348 594.448C437.532 593.888 436.564 593.608 435.444 593.608C434.596 593.608 433.82 593.808 433.116 594.208C432.428 594.592 431.884 595.136 431.484 595.84C431.084 596.544 430.884 597.352 430.884 598.264C430.884 599.192 431.084 600.008 431.484 600.712C431.884 601.4 432.428 601.936 433.116 602.32C433.82 602.704 434.596 602.896 435.444 602.896ZM451.458 604.36C449.362 604.36 447.722 603.824 446.538 602.752C445.37 601.68 444.786 600.184 444.786 598.264C444.786 596.376 445.314 594.88 446.37 593.776C447.426 592.672 448.93 592.12 450.882 592.12C452.194 592.12 453.306 592.376 454.218 592.888C455.13 593.384 455.818 594.072 456.282 594.952C456.746 595.832 456.978 596.832 456.978 597.952V598.96H446.514C446.578 600.272 447.058 601.256 447.954 601.912C448.866 602.568 450.098 602.896 451.65 602.896C452.402 602.896 453.138 602.832 453.858 602.704C454.594 602.56 455.25 602.368 455.826 602.128V603.688C455.346 603.88 454.69 604.04 453.858 604.168C453.042 604.296 452.242 604.36 451.458 604.36ZM455.25 597.64C455.218 596.392 454.834 595.408 454.098 594.688C453.362 593.968 452.282 593.608 450.858 593.608C449.466 593.608 448.402 593.984 447.666 594.736C446.93 595.472 446.546 596.44 446.514 597.64H455.25ZM473.017 604.36C471.625 604.36 470.521 604.016 469.705 603.328C468.905 602.624 468.505 601.664 468.505 600.448C468.505 599.184 468.897 598.216 469.681 597.544C470.465 596.856 471.601 596.512 473.089 596.512C474.753 596.512 476.185 596.856 477.385 597.544V596.68C477.385 595.64 477.089 594.872 476.497 594.376C475.905 593.864 474.969 593.608 473.689 593.608C472.329 593.608 471.073 593.864 469.921 594.376V592.816C470.401 592.608 471.009 592.44 471.745 592.312C472.481 592.184 473.185 592.12 473.857 592.12C475.681 592.12 477.033 592.536 477.913 593.368C478.793 594.184 479.233 595.32 479.233 596.776V604H477.505V602.512C476.497 603.744 475.001 604.36 473.017 604.36ZM473.473 602.848C474.337 602.848 475.113 602.68 475.801 602.344C476.505 601.992 477.033 601.504 477.385 600.88V599.032C476.761 598.664 476.137 598.4 475.513 598.24C474.905 598.064 474.217 597.976 473.449 597.976C472.361 597.976 471.569 598.184 471.073 598.6C470.593 599 470.353 599.616 470.353 600.448C470.353 602.048 471.393 602.848 473.473 602.848ZM488.653 604.36C486.557 604.36 484.917 603.824 483.733 602.752C482.565 601.68 481.981 600.184 481.981 598.264C481.981 596.376 482.509 594.88 483.565 593.776C484.621 592.672 486.125 592.12 488.077 592.12C489.389 592.12 490.501 592.376 491.413 592.888C492.325 593.384 493.013 594.072 493.477 594.952C493.941 595.832 494.173 596.832 494.173 597.952V598.96H483.709C483.773 600.272 484.253 601.256 485.149 601.912C486.061 602.568 487.293 602.896 488.845 602.896C489.597 602.896 490.333 602.832 491.053 602.704C491.789 602.56 492.445 602.368 493.021 602.128V603.688C492.541 603.88 491.885 604.04 491.053 604.168C490.237 604.296 489.437 604.36 488.653 604.36ZM492.445 597.64C492.413 596.392 492.029 595.408 491.293 594.688C490.557 593.968 489.477 593.608 488.053 593.608C486.661 593.608 485.597 593.984 484.861 594.736C484.125 595.472 483.741 596.44 483.709 597.64H492.445ZM501.071 604.36C500.319 604.36 499.511 604.248 498.647 604.024C497.783 603.816 497.111 603.552 496.631 603.232V601.672C497.239 602.04 497.935 602.336 498.719 602.56C499.519 602.784 500.287 602.896 501.023 602.896C502.015 602.896 502.727 602.76 503.159 602.488C503.607 602.2 503.831 601.776 503.831 601.216C503.831 600.784 503.735 600.448 503.543 600.208C503.351 599.952 503.031 599.728 502.583 599.536C502.135 599.344 501.439 599.12 500.495 598.864C499.567 598.608 498.823 598.344 498.263 598.072C497.719 597.784 497.303 597.424 497.015 596.992C496.727 596.56 496.583 596.008 496.583 595.336C496.583 594.296 496.999 593.504 497.831 592.96C498.679 592.4 499.799 592.12 501.191 592.12C501.943 592.12 502.647 592.192 503.303 592.336C503.975 592.464 504.535 592.648 504.983 592.888V594.448C504.519 594.192 503.959 593.992 503.303 593.848C502.647 593.688 501.967 593.608 501.263 593.608C500.335 593.608 499.631 593.744 499.151 594.016C498.671 594.288 498.431 594.728 498.431 595.336C498.431 595.752 498.511 596.072 498.671 596.296C498.847 596.52 499.159 596.728 499.607 596.92C500.071 597.096 500.807 597.32 501.815 597.592C503.255 597.992 504.255 598.464 504.815 599.008C505.391 599.536 505.679 600.272 505.679 601.216C505.679 602.192 505.295 602.96 504.527 603.52C503.775 604.08 502.623 604.36 501.071 604.36ZM512.468 604.36C511.38 604.36 510.532 604.04 509.924 603.4C509.332 602.76 509.036 601.848 509.036 600.664V593.92H507.236V592.48H509.036V589.024H510.884V592.48H513.788V593.92H510.884V600.712C510.884 601.512 511.044 602.08 511.364 602.416C511.684 602.736 512.268 602.896 513.116 602.896C513.532 602.896 513.972 602.8 514.436 602.608V604.12C513.908 604.28 513.252 604.36 512.468 604.36ZM516.961 586.264H518.809V594.16C519.913 592.8 521.441 592.12 523.393 592.12C524.913 592.12 526.041 592.52 526.777 593.32C527.529 594.12 527.905 595.192 527.905 596.536V604H526.057V596.704C526.057 595.712 525.817 594.952 525.337 594.424C524.857 593.88 524.089 593.608 523.033 593.608C521.257 593.608 519.849 594.408 518.809 596.008V604H516.961V586.264ZM537.333 604.36C535.237 604.36 533.597 603.824 532.413 602.752C531.245 601.68 530.661 600.184 530.661 598.264C530.661 596.376 531.189 594.88 532.245 593.776C533.301 592.672 534.805 592.12 536.757 592.12C538.069 592.12 539.181 592.376 540.093 592.888C541.005 593.384 541.693 594.072 542.157 594.952C542.621 595.832 542.853 596.832 542.853 597.952V598.96H532.389C532.453 600.272 532.933 601.256 533.829 601.912C534.741 602.568 535.973 602.896 537.525 602.896C538.277 602.896 539.013 602.832 539.733 602.704C540.469 602.56 541.125 602.368 541.701 602.128V603.688C541.221 603.88 540.565 604.04 539.733 604.168C538.917 604.296 538.117 604.36 537.333 604.36ZM541.125 597.64C541.093 596.392 540.709 595.408 539.973 594.688C539.237 593.968 538.157 593.608 536.733 593.608C535.341 593.608 534.277 593.984 533.541 594.736C532.805 595.472 532.421 596.44 532.389 597.64H541.125ZM550.015 604.36C548.927 604.36 548.079 604.04 547.471 603.4C546.879 602.76 546.583 601.848 546.583 600.664V593.92H544.783V592.48H546.583V589.024H548.431V592.48H551.335V593.92H548.431V600.712C548.431 601.512 548.591 602.08 548.911 602.416C549.231 602.736 549.815 602.896 550.663 602.896C551.079 602.896 551.519 602.8 551.983 602.608V604.12C551.455 604.28 550.799 604.36 550.015 604.36ZM555.66 589.984C555.34 589.984 555.068 589.872 554.844 589.648C554.62 589.424 554.508 589.152 554.508 588.832C554.508 588.512 554.62 588.24 554.844 588.016C555.068 587.792 555.34 587.68 555.66 587.68C555.98 587.68 556.252 587.792 556.476 588.016C556.716 588.24 556.836 588.512 556.836 588.832C556.836 589.152 556.716 589.424 556.476 589.648C556.252 589.872 555.98 589.984 555.66 589.984ZM554.748 592.48H556.596V604H554.748V592.48ZM566.083 604.36C564.867 604.36 563.771 604.12 562.795 603.64C561.835 603.144 561.083 602.44 560.539 601.528C559.995 600.6 559.723 599.512 559.723 598.264C559.723 597.032 559.995 595.952 560.539 595.024C561.099 594.08 561.867 593.36 562.843 592.864C563.819 592.368 564.923 592.12 566.155 592.12C567.035 592.12 567.811 592.2 568.483 592.36C569.155 592.52 569.755 592.776 570.283 593.128V594.688C569.275 593.968 567.955 593.608 566.323 593.608C564.915 593.608 563.771 594.016 562.891 594.832C562.011 595.648 561.571 596.792 561.571 598.264C561.571 599.736 562.011 600.88 562.891 601.696C563.771 602.496 564.891 602.896 566.251 602.896C567.099 602.896 567.859 602.8 568.531 602.608C569.203 602.416 569.843 602.12 570.451 601.72V603.28C569.891 603.664 569.259 603.936 568.555 604.096C567.867 604.272 567.043 604.36 566.083 604.36ZM577.219 604.36C576.467 604.36 575.659 604.248 574.795 604.024C573.931 603.816 573.259 603.552 572.779 603.232V601.672C573.387 602.04 574.083 602.336 574.867 602.56C575.667 602.784 576.435 602.896 577.171 602.896C578.163 602.896 578.875 602.76 579.307 602.488C579.755 602.2 579.979 601.776 579.979 601.216C579.979 600.784 579.883 600.448 579.691 600.208C579.499 599.952 579.179 599.728 578.731 599.536C578.283 599.344 577.587 599.12 576.643 598.864C575.715 598.608 574.971 598.344 574.411 598.072C573.867 597.784 573.451 597.424 573.163 596.992C572.875 596.56 572.731 596.008 572.731 595.336C572.731 594.296 573.147 593.504 573.979 592.96C574.827 592.4 575.947 592.12 577.339 592.12C578.091 592.12 578.795 592.192 579.451 592.336C580.123 592.464 580.683 592.648 581.131 592.888V594.448C580.667 594.192 580.107 593.992 579.451 593.848C578.795 593.688 578.115 593.608 577.411 593.608C576.483 593.608 575.779 593.744 575.299 594.016C574.819 594.288 574.579 594.728 574.579 595.336C574.579 595.752 574.659 596.072 574.819 596.296C574.995 596.52 575.307 596.728 575.755 596.92C576.219 597.096 576.955 597.32 577.963 597.592C579.403 597.992 580.403 598.464 580.963 599.008C581.539 599.536 581.827 600.272 581.827 601.216C581.827 602.192 581.443 602.96 580.675 603.52C579.923 604.08 578.771 604.36 577.219 604.36ZM584.48 587.224H586.28V599.392H584.48V587.224ZM585.368 604.36C585.048 604.36 584.776 604.248 584.552 604.024C584.328 603.8 584.216 603.528 584.216 603.208C584.216 602.888 584.328 602.616 584.552 602.392C584.776 602.168 585.048 602.056 585.368 602.056C585.688 602.056 585.96 602.168 586.184 602.392C586.424 602.616 586.544 602.888 586.544 603.208C586.544 603.528 586.424 603.8 586.184 604.024C585.96 604.248 585.688 604.36 585.368 604.36Z" fill="#0F3A5F"/>
</svg>
