<svg width="357" height="95" viewBox="0 0 357 95" fill="none" xmlns="http://www.w3.org/2000/svg">
<g filter="url(#filter0_d_591_1714)">
<mask id="mask0_591_1714" style="mask-type:alpha" maskUnits="userSpaceOnUse" x="6" y="25" width="345" height="59">
<path d="M9.812 32.838C8.762 32.838 7.88 32.481 7.166 31.767C6.452 31.053 6.095 30.171 6.095 29.121C6.095 28.071 6.452 27.189 7.166 26.475C7.88 25.761 8.762 25.404 9.812 25.404C10.904 25.404 11.807 25.761 12.521 26.475C13.277 27.189 13.655 28.071 13.655 29.121C13.655 30.171 13.277 31.053 12.521 31.767C11.807 32.481 10.904 32.838 9.812 32.838ZM6.599 38.76H13.088V69H6.599V38.76ZM21.845 38.76H27.893V43.107C29.321 41.343 30.938 40.02 32.744 39.138C34.55 38.256 36.419 37.815 38.351 37.815C40.787 37.815 42.719 38.235 44.147 39.075C45.575 39.873 46.625 41.112 47.297 42.792C48.641 41.154 50.279 39.915 52.211 39.075C54.185 38.235 56.159 37.815 58.133 37.815C61.829 37.815 64.496 38.76 66.134 40.65C67.772 42.498 68.591 45.249 68.591 48.903V69H62.417V49.722C62.417 47.244 61.955 45.501 61.031 44.493C60.107 43.443 58.532 42.918 56.306 42.918C53.114 42.918 50.51 44.304 48.494 47.076C48.578 47.706 48.62 48.735 48.62 50.163V69H42.446V49.722C42.446 47.244 42.026 45.501 41.186 44.493C40.346 43.443 38.834 42.918 36.65 42.918C33.458 42.918 30.602 44.724 28.082 48.336V69H21.845V38.76ZM86.391 69.945C82.737 69.945 79.797 69.021 77.571 67.173C75.387 65.283 74.295 62.742 74.295 59.55C74.295 56.19 75.345 53.607 77.445 51.801C79.587 49.953 82.611 49.029 86.517 49.029C90.675 49.029 94.203 49.869 97.101 51.549V49.974C97.101 47.58 96.366 45.816 94.896 44.682C93.468 43.506 91.2 42.918 88.092 42.918C86.244 42.918 84.438 43.107 82.674 43.485C80.952 43.821 79.398 44.304 78.012 44.934V39.768C79.272 39.18 80.91 38.718 82.926 38.382C84.942 38.004 86.895 37.815 88.785 37.815C93.783 37.815 97.479 38.928 99.873 41.154C102.309 43.338 103.527 46.383 103.527 50.289V69H97.542V65.598C96.24 67.026 94.686 68.118 92.88 68.874C91.116 69.588 88.953 69.945 86.391 69.945ZM87.966 65.094C89.982 65.094 91.809 64.695 93.447 63.897C95.085 63.099 96.303 61.986 97.101 60.558V56.463C94.371 54.699 91.326 53.817 87.966 53.817C85.53 53.817 83.703 54.3 82.485 55.266C81.309 56.19 80.721 57.618 80.721 59.55C80.721 63.246 83.136 65.094 87.966 65.094ZM127.236 83.49C125.178 83.49 123.162 83.322 121.188 82.986C119.256 82.65 117.618 82.167 116.274 81.537V76.308C119.424 77.736 123.078 78.45 127.236 78.45C131.142 78.45 133.977 77.589 135.741 75.867C137.547 74.187 138.45 71.625 138.45 68.181V64.968C135.678 68.286 131.604 69.945 126.228 69.945C123.162 69.945 120.411 69.273 117.975 67.929C115.539 66.585 113.628 64.695 112.242 62.259C110.856 59.823 110.163 57.03 110.163 53.88C110.163 50.688 110.835 47.895 112.179 45.501C113.565 43.065 115.455 41.175 117.849 39.831C120.285 38.487 123.015 37.815 126.039 37.815C128.853 37.815 131.226 38.235 133.158 39.075C135.132 39.873 136.959 41.217 138.639 43.107V38.76H144.813V67.488C144.813 72.654 143.364 76.602 140.466 79.332C137.61 82.104 133.2 83.49 127.236 83.49ZM127.488 64.905C130.092 64.905 132.381 64.212 134.355 62.826C136.371 61.44 137.736 59.592 138.45 57.282V50.478C137.652 48.126 136.266 46.278 134.292 44.934C132.36 43.59 130.092 42.918 127.488 42.918C125.43 42.918 123.561 43.38 121.881 44.304C120.243 45.186 118.941 46.467 117.975 48.147C117.051 49.827 116.589 51.738 116.589 53.88C116.589 56.064 117.051 57.996 117.975 59.676C118.941 61.314 120.243 62.595 121.881 63.519C123.561 64.443 125.43 64.905 127.488 64.905ZM169.645 69.945C164.059 69.945 159.67 68.559 156.478 65.787C153.328 62.973 151.753 59.025 151.753 53.943C151.753 48.987 153.16 45.06 155.974 42.162C158.83 39.264 162.883 37.815 168.133 37.815C171.619 37.815 174.58 38.487 177.016 39.831C179.452 41.133 181.279 42.96 182.497 45.312C183.757 47.622 184.387 50.268 184.387 53.25V56.4H157.801C158.011 59.256 159.208 61.398 161.392 62.826C163.618 64.212 166.621 64.905 170.401 64.905C172.333 64.905 174.286 64.737 176.26 64.401C178.234 64.023 179.977 63.54 181.489 62.952V68.055C180.145 68.601 178.36 69.042 176.134 69.378C173.95 69.756 171.787 69.945 169.645 69.945ZM178.402 51.927C178.318 49.071 177.373 46.866 175.567 45.312C173.803 43.716 171.283 42.918 168.007 42.918C164.815 42.918 162.337 43.737 160.573 45.375C158.809 47.013 157.885 49.197 157.801 51.927H178.402ZM188.507 49.428H191.475L195.843 64.296L200.155 49.428H202.395L206.679 64.296L211.047 49.428H214.015L208.303 69H205.587L201.247 54.216L196.935 69H194.219L188.507 49.428ZM221.393 49.428H224.137L231.949 69H229.037L227.077 64.128H218.425L216.521 69H213.581L221.393 49.428ZM226.293 61.748L222.765 52.592L219.237 61.748H226.293ZM230.698 49.428H233.722L239.882 65.108L246.042 49.428H249.066L241.254 69H238.51L230.698 49.428ZM252.149 49.428H265.057V51.836H255.005V58.024H262.509V60.404H255.005V66.62H265.057V69H252.149V49.428ZM273.44 69.42C272.32 69.42 271.21 69.3173 270.108 69.112C269.026 68.9253 268.139 68.664 267.448 68.328V65.752C269.24 66.592 271.172 67.012 273.244 67.012C276.156 67.012 277.612 66.032 277.612 64.072C277.612 63.4 277.454 62.8587 277.136 62.448C276.819 62.0373 276.362 61.6827 275.764 61.384C275.167 61.0667 274.196 60.6373 272.852 60.096C271.004 59.3493 269.67 58.528 268.848 57.632C268.027 56.736 267.616 55.6067 267.616 54.244C267.616 53.2173 267.896 52.312 268.456 51.528C269.016 50.7253 269.8 50.1093 270.808 49.68C271.816 49.232 272.974 49.008 274.28 49.008C275.344 49.008 276.306 49.092 277.164 49.26C278.023 49.428 278.863 49.6987 279.684 50.072V52.536C278.06 51.808 276.418 51.444 274.756 51.444C273.412 51.444 272.386 51.6867 271.676 52.172C270.967 52.6573 270.612 53.348 270.612 54.244C270.612 54.86 270.762 55.3827 271.06 55.812C271.378 56.2227 271.835 56.596 272.432 56.932C273.048 57.2493 273.954 57.6507 275.148 58.136C276.474 58.6773 277.519 59.1907 278.284 59.676C279.05 60.1613 279.628 60.7587 280.02 61.468C280.431 62.1587 280.636 63.0267 280.636 64.072C280.636 65.7707 280.03 67.0867 278.816 68.02C277.603 68.9533 275.811 69.42 273.44 69.42ZM284.46 69C284.086 69 283.769 68.8787 283.508 68.636C283.265 68.3747 283.144 68.0573 283.144 67.684C283.144 67.3107 283.265 66.9933 283.508 66.732C283.769 66.4707 284.086 66.34 284.46 66.34C284.833 66.34 285.15 66.4707 285.412 66.732C285.673 66.9933 285.804 67.3107 285.804 67.684C285.804 68.0573 285.673 68.3747 285.412 68.636C285.15 68.8787 284.833 69 284.46 69ZM298.672 69.42C296.656 69.42 294.864 69 293.296 68.16C291.728 67.32 290.505 66.1347 289.628 64.604C288.75 63.0547 288.312 61.2627 288.312 59.228C288.312 57.1933 288.75 55.4013 289.628 53.852C290.505 52.3027 291.728 51.108 293.296 50.268C294.864 49.428 296.656 49.008 298.672 49.008C301.36 49.008 303.609 49.6893 305.42 51.052V53.796C303.796 52.3587 301.63 51.64 298.924 51.64C297.412 51.64 296.068 51.948 294.892 52.564C293.734 53.18 292.829 54.0667 292.176 55.224C291.522 56.3627 291.196 57.6973 291.196 59.228C291.196 60.7587 291.522 62.1027 292.176 63.26C292.848 64.4173 293.762 65.304 294.92 65.92C296.096 66.536 297.43 66.844 298.924 66.844C300.305 66.844 301.537 66.6667 302.62 66.312C303.721 65.9387 304.738 65.3507 305.672 64.548V67.32C303.992 68.72 301.658 69.42 298.672 69.42ZM317.784 69.42C315.842 69.42 314.088 69 312.52 68.16C310.952 67.3013 309.72 66.0973 308.824 64.548C307.928 62.9987 307.48 61.2253 307.48 59.228C307.48 57.2307 307.928 55.4573 308.824 53.908C309.72 52.3587 310.952 51.1547 312.52 50.296C314.088 49.4373 315.842 49.008 317.784 49.008C319.725 49.008 321.48 49.4373 323.048 50.296C324.616 51.1547 325.848 52.3587 326.744 53.908C327.64 55.4573 328.088 57.2307 328.088 59.228C328.088 61.2253 327.64 62.9987 326.744 64.548C325.848 66.0973 324.616 67.3013 323.048 68.16C321.48 69 319.725 69.42 317.784 69.42ZM317.784 66.844C319.165 66.844 320.416 66.536 321.536 65.92C322.674 65.2853 323.57 64.3987 324.224 63.26C324.877 62.1027 325.204 60.7587 325.204 59.228C325.204 57.716 324.877 56.3907 324.224 55.252C323.589 54.0947 322.712 53.208 321.592 52.592C320.472 51.9573 319.221 51.64 317.84 51.64C316.44 51.64 315.17 51.948 314.032 52.564C312.912 53.18 312.016 54.0667 311.344 55.224C310.69 56.3813 310.364 57.716 310.364 59.228C310.364 60.7587 310.69 62.1027 311.344 63.26C311.997 64.3987 312.884 65.2853 314.004 65.92C315.142 66.536 316.402 66.844 317.784 66.844ZM331.173 49.428H334.029L341.001 64.688L347.973 49.428H350.829V69H348.057V55.084L341.701 69H340.301L333.917 55.084V69H331.173V49.428Z" fill="black"/>
</mask>
<g mask="url(#mask0_591_1714)">
<g style="mix-blend-mode:exclusion">
<rect x="1" y="36" width="185" height="50" fill="white"/>
</g>
<rect x="188" y="36" width="181" height="50" fill="#828282"/>
<mask id="mask1_591_1714" style="mask-type:alpha" maskUnits="userSpaceOnUse" x="-74" y="-70" width="188" height="188">
<ellipse cx="20" cy="24" rx="94" ry="94" fill="#D9D9D9"/>
</mask>
<g mask="url(#mask1_591_1714)">
<path d="M-7.9496 -65.7749C-26.5047 -60.0044 -42.5952 -48.6398 -54.2486 -33.6538C-51.1459 -36.374 -47.9927 -38.8705 -44.821 -41.0518C-37.1651 -46.3169 -28.641 -50.2739 -20.0046 -50.2739C-10.6091 -50.2739 -3.36274 -48.0047 2.68705 -44.4381C8.30155 -41.1281 12.6729 -36.794 16.3656 -33.1327L16.7826 -32.7194C20.7437 -28.7956 24.0527 -25.6054 28.1767 -23.2504C32.1108 -21.0038 37.0651 -19.3819 44.2754 -19.3819C50.4645 -19.3819 57.1178 -22.2348 64.2037 -27.6574C70.5503 -32.5142 76.7248 -39.0355 82.5767 -46.1451C80.7058 -47.8153 78.7677 -49.4118 76.7669 -50.9299C75.9394 -50.2475 75.104 -49.5826 74.261 -48.9375C65.7187 -42.4005 55.5636 -37.2553 44.2752 -37.2553C34.2866 -37.2553 26.4891 -39.5792 19.9699 -43.3019C13.7439 -46.8573 9.0318 -51.5253 5.2301 -55.2914L5.13575 -55.3849C1.08737 -59.3952 -1.96958 -62.3948 -5.71776 -64.6046C-6.42208 -65.0198 -7.16246 -65.4126 -7.9496 -65.7749Z" fill="#0F3A5F"/>
<path d="M59.6327 -61.2612C54.0475 -57.5883 48.9327 -55.7905 44.2752 -55.7905C37.3983 -55.7905 32.7853 -57.3282 29.1613 -59.3977C25.2958 -61.6051 22.1583 -64.6121 18.18 -68.553L17.725 -69.0041C17.4143 -69.3122 17.0974 -69.6265 16.7741 -69.9457C17.845 -69.9818 18.9204 -70 20 -70C34.1604 -70 47.5895 -66.8689 59.6327 -61.2612Z" fill="#0F3A5F"/>
<path d="M73.0543 -16.0919C80.1801 -21.545 86.7872 -28.4719 92.7221 -35.5653C93.9874 -34.0223 95.2046 -32.4383 96.3713 -30.8156C94.6543 -28.5273 92.8792 -26.2206 91.0482 -23.9313C84.5665 -15.8276 77.5408 -8.14933 70.1868 -2.5217C62.8096 3.12375 55.456 6.43512 48.247 6.43512C40.4811 6.43511 34.9582 4.67282 30.507 2.13099C25.9523 -0.469969 22.3574 -3.96528 18.4249 -7.86081L18.0835 -8.19914C14.3413 -11.9081 10.2291 -15.9838 4.97776 -19.0797C-0.555064 -22.3415 -7.21971 -24.4569 -16.033 -24.4569C-23.6945 -24.4569 -31.5491 -20.9236 -38.9738 -15.8175C-46.4652 -10.6654 -53.9395 -3.61985 -60.9286 4.06647C-65.4562 9.04568 -69.822 14.3404 -73.9007 19.6409C-73.7387 16.0924 -73.38 12.5953 -72.8352 9.16015C-67.8672 2.39692 -62.3457 -4.5226 -56.5742 -10.8699C-49.9051 -18.2043 -43.0849 -24.5708 -36.5686 -29.0522C-29.9298 -33.6179 -24.3516 -35.7106 -20.0046 -35.7105C-13.1711 -35.7106 -8.48426 -34.1183 -4.70906 -31.8926C-0.711385 -29.5358 2.51731 -26.3514 6.5335 -22.373L6.57374 -22.3332C10.4006 -18.5422 14.9567 -14.029 20.9548 -10.6038C27.1639 -7.05814 34.6201 -4.81853 44.2754 -4.81853C54.9518 -4.81854 64.6867 -9.68863 73.0543 -16.0919Z" fill="#0F3A5F"/>
<path d="M114 24C114 75.9148 71.9148 118 20 118C-25.7581 118 -63.8798 85.3048 -72.2781 42.0015C-66.7158 35.2674 -60.5388 28.3775 -54.116 22.0985C-46.8674 15.0121 -39.3589 8.75638 -32.1139 4.37745C-24.8342 -0.0224212 -18.0334 -2.39757 -12.1369 -2.05053C-4.38514 -1.59429 1.11469 0.571032 5.54964 3.55002C9.98482 6.52916 13.4173 10.3547 17.0586 14.413L17.2021 14.5729C20.8506 18.6388 24.7153 22.9179 29.8573 26.2695C35.0492 29.6537 41.466 32.0498 50.217 32.5648C59.2461 33.0962 68.0886 29.4729 76.3317 23.901C84.5869 18.3208 92.4266 10.6608 99.5044 2.80638C102.657 -0.692083 105.675 -4.24854 108.522 -7.69549C112.068 2.20708 114 12.878 114 24Z" fill="#0F3A5F"/>
<path d="M106.88 -11.9514C103.648 -8.00404 100.193 -3.89148 96.5538 0.147544C89.5634 7.90495 81.9737 15.2931 74.1074 20.6104C66.2289 25.9359 58.2577 29.0594 50.4504 28.5999C42.365 28.124 36.6195 25.9361 32.0261 22.9421C27.3828 19.9155 23.839 16.0222 20.1583 11.9203L19.8883 11.6194C16.336 7.65924 12.6155 3.5115 7.76431 0.252942C2.73158 -3.12759 -3.45428 -5.51821 -11.9036 -6.0155C-18.9679 -6.43128 -26.6006 -3.59576 -34.1684 0.978255C-41.7709 5.57323 -49.5239 12.0546 -56.8926 19.2584C-62.5846 24.823 -68.0788 30.85 -73.1319 36.8287C-73.3239 35.4215 -73.4848 34.0044 -73.6138 32.5781C-68.0655 24.8384 -61.7285 16.7539 -55.0514 9.41059C-48.2882 1.97269 -41.2756 -4.59354 -34.4725 -9.27224C-27.6025 -13.9968 -21.3548 -16.5132 -16.033 -16.5132C-8.61714 -16.5132 -3.34861 -14.7671 0.943521 -12.2367C5.33162 -9.64972 8.83145 -6.18276 12.7661 -2.28504L12.8345 -2.21731C16.6983 1.61017 20.9793 5.83786 26.5678 9.02916C32.2598 12.2796 39.1474 14.3788 48.247 14.3788C57.9036 14.3788 66.9382 9.96713 75.0144 3.78674C83.114 -2.4115 90.6069 -10.6619 97.2517 -18.9696C98.5224 -20.5584 99.7679 -22.1568 100.986 -23.7506C103.214 -19.9788 105.187 -16.0378 106.88 -11.9514Z" fill="#0F3A5F"/>
<path opacity="0.7" fill-rule="evenodd" clip-rule="evenodd" d="M79.8723 64.5198C72.4476 69.626 64.593 73.1593 56.9315 73.1593C48.1182 73.1593 41.4536 71.0439 35.9207 67.7821C30.6694 64.6862 26.5572 60.6105 22.815 56.9015C22.7009 56.7884 22.5871 56.6756 22.4736 56.5632C18.5411 52.6676 14.9462 49.1723 10.3915 46.5714C5.94033 44.0295 0.417456 42.2672 -7.34851 42.2672C-14.5575 42.2672 -21.9111 45.5786 -29.2883 51.2241C-36.6422 56.8517 -43.668 64.53 -50.1497 72.6337C-55.4377 79.245 -60.2588 86.0027 -64.5656 92.0396C-65.5362 93.4001 -66.4808 94.7241 -67.3986 96.0015C-69.8717 99.4433 -72.1733 102.577 -74.2372 105.108C-76.2332 107.556 -78.2686 109.775 -80.2277 111.096L-84.6681 104.509C-83.7633 103.899 -82.3579 102.498 -80.3937 100.089C-78.4972 97.7627 -76.3189 94.8027 -73.8496 91.3662C-72.96 90.1281 -72.0353 88.8318 -71.0778 87.4895C-66.7675 81.447 -61.7917 74.4715 -56.3532 67.6719C-49.7084 59.3643 -42.2155 51.1139 -34.1159 44.9156C-26.0397 38.7352 -17.0051 34.3236 -7.34852 34.3236C1.75106 34.3236 8.63868 36.4228 14.3307 39.6732C19.9192 42.8645 24.2002 47.0922 28.064 50.9197L28.1324 50.9874C32.0671 54.8851 35.5669 58.3521 39.955 60.9391C44.2471 63.4695 49.5157 65.2156 56.9315 65.2156C62.2533 65.2156 68.501 62.6992 75.371 57.9746C82.1741 53.2959 89.1867 46.7297 95.9499 39.2918C109.472 24.4207 121.599 6.50965 128.606 -5.42045L135.456 -1.39723C128.249 10.8714 115.81 29.2585 101.827 44.6359C94.838 52.3222 87.3637 59.3678 79.8723 64.5198Z" fill="#5BFC4D"/>
<path opacity="0.5" fill-rule="evenodd" clip-rule="evenodd" d="M77.1564 44.712C69.7702 49.5739 62.2523 52.7011 55.1772 52.5575C46.7151 52.3858 40.4418 50.235 35.2827 47.0507C30.3096 43.9813 26.4323 39.9799 22.7302 36.1594L22.4488 35.869C18.6129 31.9119 14.9219 28.1578 10.1655 25.3122C5.4603 22.4972 -0.365092 20.532 -8.4628 20.3677C-16.282 20.209 -24.1271 23.637 -31.7948 29.2618C-39.4506 34.8779 -46.7504 42.5527 -53.437 50.5734C-58.8966 57.1223 -63.8935 63.8345 -68.323 69.7844C-69.3177 71.1204 -70.2837 72.4181 -71.22 73.6668C-73.7614 77.0564 -76.0944 80.1001 -78.1663 82.5384C-80.2035 84.9359 -82.1218 86.9117 -83.8402 88.0201L-85.9931 84.6824C-84.809 83.9186 -83.2139 82.3448 -81.193 79.9666C-79.2068 77.6292 -76.9372 74.6712 -74.3978 71.2841C-73.476 70.0548 -72.5202 68.7707 -71.5323 67.4436C-67.101 61.491 -62.0245 54.6716 -56.4877 48.0301C-49.7175 39.9091 -42.1784 31.953 -34.1441 26.0592C-26.1215 20.1741 -17.425 16.2132 -8.38221 16.3967C0.382159 16.5746 6.88637 18.7219 12.2047 21.9038C17.4719 25.055 21.4985 29.1821 25.3007 33.1046L25.4502 33.2589C29.245 37.1739 32.8222 40.8646 37.3688 43.6709C41.9151 46.4769 47.4942 48.429 55.2578 48.5865C61.1633 48.7064 67.8676 46.0712 74.9726 41.3944C82.0437 36.7399 89.3059 30.1998 96.2763 22.8397C110.215 8.12187 122.783 -9.65687 130.083 -21.526L133.466 -19.4453C126.064 -7.40897 113.334 10.6045 99.1602 25.5709C92.0742 33.0529 84.5764 39.8279 77.1564 44.712Z" fill="#5BFC4D"/>
<path opacity="0.8" fill-rule="evenodd" clip-rule="evenodd" d="M85.7194 89.7539C78.0636 95.019 69.5394 98.976 60.9031 98.976C51.5076 98.976 44.2612 96.7068 38.2114 93.1402C32.5969 89.8302 28.2256 85.4961 24.5328 81.8348C24.3929 81.6961 24.2539 81.5583 24.1159 81.4215C20.1547 77.4977 16.8458 74.3075 12.7218 71.9525C8.7876 69.7059 3.83338 68.084 -3.37692 68.084C-9.56602 68.084 -16.2193 70.9369 -23.3053 76.3595C-30.3485 81.7494 -37.1796 89.1892 -43.5934 97.208C-48.8188 103.741 -53.5755 110.408 -57.8803 116.442C-58.8564 117.81 -59.8093 119.146 -60.7391 120.44C-63.2137 123.884 -65.5668 127.09 -67.7004 129.707C-69.7097 132.171 -72.0075 134.73 -74.4059 136.347L-82.5467 124.272C-82.0812 123.958 -80.9383 122.897 -78.9873 120.504C-77.1606 118.264 -75.0337 115.376 -72.566 111.942C-71.688 110.72 -70.7716 109.435 -69.8196 108.1C-65.5083 102.056 -60.4678 94.9896 -54.9663 88.1114C-48.2536 79.7188 -40.566 71.23 -32.1558 64.794C-23.7883 58.3907 -14.0534 53.5206 -3.37693 53.5206C6.27832 53.5206 13.7346 55.7602 19.9436 59.3059C25.9418 62.7311 30.4978 67.2443 34.3247 71.0353L34.3649 71.0751C38.3811 75.0535 41.6098 78.2379 45.6075 80.5947C49.3827 82.8203 54.0695 84.4126 60.9031 84.4126C65.25 84.4126 70.8282 82.32 77.467 77.7543C83.9834 73.2729 90.8035 66.9063 97.4726 59.5719C110.803 44.9119 122.799 27.1992 129.724 15.4101L142.281 22.786C134.992 35.1957 122.422 53.7811 108.248 69.3695C101.164 77.1593 93.4976 84.4046 85.7194 89.7539Z" fill="#5BFC4D"/>
<path fill-rule="evenodd" clip-rule="evenodd" d="M86.8448 125.813C79.0503 131.173 70.1245 135.385 60.9032 135.385C51.1583 135.385 43.5629 133.023 37.203 129.274C31.3697 125.835 26.8421 121.344 23.1734 117.706C23.0202 117.554 22.8686 117.404 22.7184 117.255C18.7401 113.314 15.6027 110.307 11.7371 108.1C8.11314 106.03 3.50009 104.493 -3.37681 104.493C-8.95398 104.493 -15.1871 107.07 -22.0983 112.359C-28.9551 117.606 -35.6694 124.903 -42.0424 132.871C-47.2303 139.357 -51.9485 145.97 -56.252 152.002C-57.2313 153.375 -58.1892 154.717 -59.1262 156.021C-61.6018 159.467 -63.9857 162.717 -66.1611 165.385C-68.1783 167.859 -70.6337 170.622 -73.2957 172.417L-83.6567 157.048C-83.6574 157.048 -83.6569 157.048 -83.655 157.046C-83.6283 157.026 -83.3341 156.806 -82.7444 156.202C-82.147 155.591 -81.4125 154.758 -80.5263 153.672C-78.7414 151.483 -76.6454 148.639 -74.1786 145.206C-73.3075 143.993 -72.396 142.715 -71.4473 141.385C-67.1357 135.34 -62.0563 128.219 -56.5171 121.294C-49.7636 112.85 -41.9592 104.218 -33.3626 97.6396C-24.8203 91.1026 -14.6652 85.9574 -3.37681 85.9574C6.61184 85.9574 14.4093 88.2812 20.9285 92.004C27.1546 95.5594 31.8667 100.227 35.6684 103.994L35.7627 104.087C39.8111 108.097 42.868 111.097 46.6162 113.307C50.0812 115.349 54.419 116.849 60.9032 116.849C64.6652 116.849 69.8417 115.011 76.3418 110.541C82.6861 106.178 89.3908 99.9309 96.0034 92.6586C109.219 78.1252 121.137 60.5314 128.012 48.827L143.994 58.2145C136.655 70.7088 124.007 89.4132 109.717 105.128C102.577 112.98 94.7951 120.345 86.8448 125.813Z" fill="#5BFC4D"/>
</g>
</g>
</g>
<defs>
<filter id="filter0_d_591_1714" x="0.0949707" y="19.4041" width="356.734" height="70.0859" filterUnits="userSpaceOnUse" color-interpolation-filters="sRGB">
<feFlood flood-opacity="0" result="BackgroundImageFix"/>
<feColorMatrix in="SourceAlpha" type="matrix" values="0 0 0 0 0 0 0 0 0 0 0 0 0 0 0 0 0 0 127 0" result="hardAlpha"/>
<feOffset/>
<feGaussianBlur stdDeviation="3"/>
<feComposite in2="hardAlpha" operator="out"/>
<feColorMatrix type="matrix" values="0 0 0 0 0 0 0 0 0 0 0 0 0 0 0 0 0 0 0.5 0"/>
<feBlend mode="normal" in2="BackgroundImageFix" result="effect1_dropShadow_591_1714"/>
<feBlend mode="normal" in="SourceGraphic" in2="effect1_dropShadow_591_1714" result="shape"/>
</filter>
</defs>
</svg>
